<svg width="65.00" height="40.00"
     viewBox="0.0 0.0 65.0 40.0"
     viewPort="0 0 65px 40px"
     version="1.1"
     xmlns:xlink="http://www.w3.org/1999/xlink"
     xmlns="http://www.w3.org/2000/svg">

    <polygon points="30,10  30,30  50,20 " style="stroke:black;stroke-width:0.6px;fill:none;"/>
    <line x1="20" y1="15" x2="30" y2="15" style="stroke:black;stroke-width:0.6px;fill:none;"/>
    <line x1="25" y1="26" x2="30" y2="26" style="stroke:black;stroke-width:0.6px;fill:none;"/>
    <line x1="50" y1="20" x2="55" y2="20" style="stroke:black;stroke-width:0.6px;fill:none;"/>
    <text x="32" y="17" font-size="5">-</text>
    <text x="31" y="27" font-size="5">+</text>
    <line x1="25" y1="15" x2="25" y2="7" style="stroke:black;stroke-width:0.6px;fill:none;stroke-linecap:round;"/>
    <line x1="25" y1="7" x2="30" y2="7" style="stroke:black;stroke-width:0.6px;fill:none;"/>
    <rect x="30" y="5.5" width="8" height="3" style="stroke:black;stroke-width:0.6px;fill:none;"/>
    <line x1="38" y1="7" x2="53" y2="7" style="stroke:black;stroke-width:0.6px;fill:none;"/>
    <line x1="53" y1="7" x2="53" y2="20" style="stroke:black;stroke-width:0.6px;fill:none;"/>
    <rect x="12" y="13.5" width="8" height="3" style="stroke:black;stroke-width:0.6px;fill:none;"/>
    <line x1="7" y1="15" x2="12" y2="15" style="stroke:black;stroke-width:0.6px;fill:none;"/>
    <line x1="7" y1="15" x2="7" y2="19" style="stroke:black;stroke-width:0.6px;fill:none;stroke-linecap:round;"/>
    <line x1="5" y1="19" x2="9" y2="19" style="stroke:black;stroke-width:0.6px;fill:none;"/>
    <text x="15" y="27" font-size="4">V_in+</text>
    <text x="55" y="21" font-size="4">V_out</text>
    <text x="13" y="12" font-size="4">R1</text>
    <text x="31" y="4" font-size="4">R2</text>

</svg>
