<svg width="50.00" height="50.00" 
     viewBox="0.0 0.0 50.0 50.0" 
     viewPort="0 0 50px 50px" 
     version="1.1"
     xmlns:xlink="http://www.w3.org/1999/xlink"
     xmlns="http://www.w3.org/2000/svg">
    
    <line x1="15" y1="5" x2="35" y2="5" style="stroke:black;stroke-linecap:round"/>
    <circle cx="35" cy="5" r="1" style="stroke:black;fill:white;stroke-width:0.7px;"/>
    <!--battery #1-->
    <line x1="15" y1="5" x2="15" y2="12" style="stroke:black;"/>
    <line x1="11" y1="12" x2="19" y2="12" style="stroke:black;"/>
    <line x1="13" y1="14" x2="17" y2="14" style="stroke:black;"/>   
    <line x1="15" y1="14" x2="15" y2="25" style="stroke:black;"/>
    <text x="9" y="12" font-size="4">+</text>
   
    <!--middle junction-->
    <circle cx="15" cy="23" r="1.2" style="fill:black;"/>
    <line x1="15" y1="23" x2="35" y2="23" style="stroke:black;"/>
    <circle cx="35" cy="23" r="1" style="stroke:black;fill:white;stroke-width:0.7px;"/>
    <!--battery #2-->
    <line x1="15" y1="25" x2="15" y2="30" style="stroke:black;"/>
    <line x1="11" y1="30" x2="19" y2="30" style="stroke:black;"/>
    <line x1="13" y1="32" x2="17" y2="32" style="stroke:black;"/>   
    <line x1="15" y1="32" x2="15" y2="42" style="stroke:black;"/>
    <text x="9" y="30" font-size="4">+</text>
   
    <line x1="15" y1="42" x2="35" y2="42" style="stroke:black;stroke-linecap:round;"/>
    <circle cx="35" cy="42" r="1" style="stroke:black;fill:white;stroke-width:0.7px;"/>

    <!--arrow #1-->
    <line x1="21" y1="6" x2="21" y2="18" style="stroke:black;stroke-width:0.8px;"/>
    <polygon points="19,18 23,18 21,21 19,18" style="fill:black;"/> 
    <text x="22" y="14" font-size="4">U  = 1.5V</text>
    <text x="24.5" y="15" font-size="2.5">A</text>
    
    <!--arrow #2-->
    <line x1="21" y1="25" x2="21" y2="38" style="stroke:black;stroke-width:0.8px;"/>
    <polygon points="19,38 23,38 21,41 19,38" style="fill:black;"/> 
    <text x="22" y="32" font-size="4">U  = 1.5V</text>
    <text x="24.5" y="33" font-size="2.5">B</text>

    <path d="M 42,5 Q50,20 42,41" style="fill:white;stroke:blue;stroke-width:0.8px;"/>
    <polygon points="41,38.5 45,40 41.5,42" style="fill:blue;"/> 

    <path d="M 40,5 Q45,12 40,22" style="fill:white;stroke:blue;stroke-width:0.8px;"/>
    <path d="M 40,23 Q45,32 40,42" style="fill:white;stroke:blue;stroke-width:0.8px;"/>
</svg>
