<svg width="200px"
     height="200px"
     viewBox="0.0 0.0 200.00 200.00"
     viewPort="0 0 200 200"
     xmlns="http://www.w3.org/2000/svg" version="1.1">
    <defs>
        <marker id="arrow" markerWidth="10" markerHeight="10" refX="0" refY="2" orient="auto" markerUnits="strokeWidth">
            <path d="M0,0 L0,4 L6,2z" fill="black" />
        </marker>
    </defs>
    <line x1="100" y1="0" x2="100" y2="200" style="fill:none;stroke:black;stroke-width:0.5px"/>
    <line x1="0" y1="100" x2="200" y2="100" style="fill:none;stroke:black;stroke-width:0.5px"/>
    <circle cx="100" cy="100" r="80" style="fill:none;stroke:black;stroke-width:0.5px"/>
    <line x1="100" y1="100" x2="157" y2="43.9" style="fill:none;stroke:black;stroke-width:0.5px"/>
    <path d="M 110 81 A 40 40 0 0 1 115 100" style="fill:none;stroke:black;stroke-width:0.5px"/>
    <text x="115" y="94" font-size="4.5">θ</text>
    <line x1="100" y1="100" x2="138" y2="29.5" style="fill:none;stroke:black;stroke-width:0.5px"/>
    <line x1="100" y1="100" x2="118" y2="22" style="fill:none;stroke:black;stroke-width:0.5px"/>
    <text x="182" y="98" font-size="4.5">V0</text>
    <text x="160" y="44" font-size="4.5">V1</text>
    <text x="138" y="29" font-size="4.5">V3</text>
    <text x="117" y="21" font-size="4.5">V2</text>
    <line x1="138" y1="100" x2="138" y2="29.5" stroke-dasharray="2 2" style="fill:none;stroke:blue;stroke-width:0.5px"/>
    <line x1="100" y1="29.5" x2="138" y2="29.5" stroke-dasharray="2 2"
          style="fill:none;stroke:blue;stroke-width:0.5px"/>
    <text x="80" y="30" font-size="4.5" style="fill:blue;stroke:blue;stroke-width:0.2px">y=sin(θ)</text>
    <text x="125" y="106" font-size="4.5" style="fill:blue;stroke:blue;stroke-width:0.2px">x=cos(θ)</text>
    <polyline points="125,100 125,75.5 107,72 115,68" style="fill:none;stroke:black;stroke-width:0.5px" marker-end="url(#arrow)"/>
</svg>

