<?xml version="1.0" encoding="UTF-8" standalone="no"?>
<svg
   xmlns:dc="http://purl.org/dc/elements/1.1/"
   xmlns:cc="http://creativecommons.org/ns#"
   xmlns:rdf="http://www.w3.org/1999/02/22-rdf-syntax-ns#"
   xmlns:svg="http://www.w3.org/2000/svg"
   xmlns="http://www.w3.org/2000/svg"
   xmlns:sodipodi="http://sodipodi.sourceforge.net/DTD/sodipodi-0.dtd"
   xmlns:inkscape="http://www.inkscape.org/namespaces/inkscape"
   width="200.00"
   height="140.00"
   viewBox="0.0 0.0 200.0 140.0"
   version="1.1"
   viewport="0 0 200px 140px"
   id="svg10"
   sodipodi:docname="and_gate.svg"
   inkscape:version="0.92.4 (5da689c313, 2019-01-14)">
  <metadata
     id="metadata16">
    <rdf:RDF>
      <cc:Work
         rdf:about="">
        <dc:format>image/svg+xml</dc:format>
        <dc:type
           rdf:resource="http://purl.org/dc/dcmitype/StillImage" />
      </cc:Work>
    </rdf:RDF>
  </metadata>
  <defs>
  <g id="busline">
      <line x1= "0" y1="6" x2="5" y2="0" style="fill:none;stroke:black;stroke-width:0.8px;"/>
      <text x="-3" y="9" font-size="6">4</text>
  </g>
  <g id="and" transform="scale(0.3)">
  <sodipodi:namedview
     pagecolor="#ffffff"
     bordercolor="#666666"
     borderopacity="1"
     objecttolerance="10"
     gridtolerance="10"
     guidetolerance="10"
     inkscape:pageopacity="0"
     inkscape:pageshadow="2"
     inkscape:window-width="2560"
     inkscape:window-height="1381"
     id="namedview12"
     showgrid="false"
     inkscape:zoom="18.88"
     inkscape:cx="45.848012"
     inkscape:cy="46.542544"
     inkscape:window-x="0"
     inkscape:window-y="0"
     inkscape:window-maximized="1"
     inkscape:current-layer="svg10" />
  <!--inputs-->
  <line x1= "10" y1="25" x2="30" y2="25" style="fill:#ffffff;stroke:#000000" stroke-width="2px"/>
  <line x1= "10" y1="75" x2="30" y2="75" style="fill:#ffffff;stroke:#000000" stroke-width="2px"/>
  <!--output-->
  <line x1= "90" y1="50" x2="130" y2="50" style="fill:#ffffff;stroke:#000000" stroke-width="2px"/>
  <polyline
     points="70,10 30,10 30,90, 70,90"
     style="fill:#ffffff;stroke:#000000"
     stroke-width="2px"
     id="polyline5" />
  <path
     id="ellipse8"
     style="fill:#ffffff;stroke:#000000;stroke-width:2px"
     sodipodi:type="arc"
     sodipodi:cx="70"
     sodipodi:cy="50"
     sodipodi:rx="40"
     sodipodi:ry="40"
     sodipodi:start="4.7"
     sodipodi:end="1.5656212"
     sodipodi:open="true"
     d="m 69.504453,10.00307 a 40,40 0 0 1 34.935157,19.652064 40,40 0 0 1 0.352,40.081724 40,40 0 0 1 -34.584606,20.262606" />
  </g>
  </defs>
  <use x="30" y="0" href="#and"/>
  <use x="30" y="35" href="#and"/>
  <use x="30" y="70" href="#and"/>
  <use x="30" y="105" href="#and"/>
  
  
  <!--inputs-->
  <use x="95" y="53" href="#busline"/>
  <line x1= "90" y1="55" x2="105" y2="55" style="fill:none;stroke:black;stroke-width:1px;"/>
  <text x="83" y="57" font-size="8">A</text>
  <use x="95" y="83" href="#busline"/>
  <line x1= "90" y1="85" x2="105" y2="85" style="fill:none;stroke:black;stroke-width:1px;"/>
  <text x="83" y="87" font-size="8">B</text>
  <rect x="105" y="45" width="50" height="50" style="fill:none;stroke:black;stroke-width:1px;"/>
  <text x="120" y="70" font-size="8">4-bit</text>
  <text x="120" y="80" font-size="8">AND</text>
  <!--output-->
  <use x="160" y="67" href="#busline"/>
  <line x1= "155" y1="70" x2="170" y2="70" style="fill:none;stroke:black;stroke-width:1px;"/>
  <text x="175" y="72" font-size="8">Y</text>
</svg>
