<svg width="120.00" height="150.00" 
     viewBox="0.0 0.0 120.0 150.0" 
     viewPort="0 0 120px 150px" 
     version="1.1"
     xmlns:xlink="http://www.w3.org/1999/xlink"
     xmlns="http://www.w3.org/2000/svg">
     <text x="14" y="8" font-size="3.5" font-style="italic">Program Counter</text>
     <rect x="10" y="10" width="32" height="5" 
        style="fill:none;stroke:black;stroke-width:0.5px"/>
     <text x="22" y="14" font-size="4">PC</text>
     
     <rect x="10" y="18" width="32" height="5" 
        style="fill:none;stroke:black;stroke-width:0.5px"/>
     <text x="22" y="22" font-size="4">SP</text>
     
     
     
     <rect x="50" y="10" width="32" height="5" 
        style="fill:none;stroke:black;stroke-width:0.5px"/>
     <line x1="54" y1="10" x2="54" y2="15" 
           style="fill:none;stroke:black;stroke-width:0.5px"/>
     <line x1="58" y1="10" x2="58" y2="15" 
           style="fill:none;stroke:black;stroke-width:0.5px"/>
     <line x1="62" y1="10" x2="62" y2="15" 
           style="fill:none;stroke:black;stroke-width:0.5px"/>
     <line x1="66" y1="10" x2="66" y2="15" 
           style="fill:none;stroke:black;stroke-width:0.5px"/>
     <line x1="70" y1="10" x2="70" y2="15" 
           style="fill:none;stroke:black;stroke-width:0.5px"/>
     <line x1="74" y1="10" x2="74" y2="15" 
           style="fill:none;stroke:black;stroke-width:0.5px"/>
     <line x1="78" y1="10" x2="78" y2="15" 
           style="fill:none;stroke:black;stroke-width:0.5px"/>
     <line x1="82" y1="10" x2="82" y2="15" 
           style="fill:none;stroke:black;stroke-width:0.5px"/>
     <text x="51" y="14" font-size="4">S</text>
     <text x="55" y="14" font-size="4">Z</text>
     <text x="59" y="14" font-size="4">-</text>
     <text x="62.5" y="14" font-size="4">H</text>
     <text x="67" y="14" font-size="4">-</text>
     <text x="71" y="14" font-size="4">P</text>
     <text x="74.5" y="14" font-size="4">N</text>
     <text x="78.5" y="14" font-size="4">C</text> 
    
     <line x1="40" y1="30" x2="50" y2="10" 
           style="fill:none;stroke:black;stroke-width:0.5px"/>
     <line x1="40" y1="30" x2="50" y2="15" 
           style="fill:none;stroke:black;stroke-width:0.5px"/>
     <line x1="40" y1="30" x2="82" y2="15" 
           style="fill:none;stroke:black;stroke-width:0.5px"/>
     
    <!--     main registers -->
     <text x="14" y="29" font-size="3.5" font-style="italic">General Registers </text>
     <rect x="10" y="30" width="32" height="5" 
        style="fill:none;stroke:black;stroke-width:0.5px"/>
     <line x1="26" y1="30" x2="26" y2="35" 
           style="fill:none;stroke:black;stroke-width:0.5px"/>
     <text x="16" y="34" font-size="4">A</text>
     <text x="32" y="34" font-size="4">F</text>
     <rect x="10" y="35" width="32" height="5" 
        style="fill:none;stroke:black;stroke-width:0.5px"/>
     <line x1="26" y1="35" x2="26" y2="40" 
           style="fill:none;stroke:black;stroke-width:0.5px"/>
     <text x="16" y="39" font-size="4">B</text>
     <text x="32" y="39" font-size="4">C</text>
     <rect x="10" y="40" width="32" height="5" 
        style="fill:none;stroke:black;stroke-width:0.5px"/>
     <line x1="26" y1="40" x2="26" y2="45" 
           style="fill:none;stroke:black;stroke-width:0.5px"/>
     <text x="16" y="44" font-size="4">D</text>
     <text x="32" y="44" font-size="4">E</text>
     <rect x="10" y="45" width="32" height="5" 
        style="fill:none;stroke:black;stroke-width:0.5px"/>
     <line x1="26" y1="45" x2="26" y2="50" 
           style="fill:none;stroke:black;stroke-width:0.5px"/>
     <text x="16" y="49" font-size="4">H</text>
     <text x="32" y="49" font-size="4">L</text>
     
     <!--      index -->
     <text x="14" y="58" font-size="3.5" font-style="italic">Index Registers </text>
     <rect x="10" y="60" width="32" height="5" 
        style="fill:none;stroke:black;stroke-width:0.5px"/>
     <text x="24" y="64" font-size="4">IX</text>
     
     <rect x="10" y="68" width="32" height="5" 
        style="fill:none;stroke:black;stroke-width:0.5px"/>
     <text x="24" y="72" font-size="4">IY</text>
     
    <!--      hardware -->
     <text x="54" y="58" font-size="3.5" font-style="italic">Hardware Registers </text>
     <rect x="50" y="60" width="32" height="5" 
        style="fill:none;stroke:black;stroke-width:0.5px"/>
     <line x1="66" y1="60" x2="66" y2="65" 
           style="fill:none;stroke:black;stroke-width:0.5px"/>
     <text x="58" y="64" font-size="4">I</text>
     <text x="72" y="64" font-size="4">R</text>
     
    <!--      shadow registers -->
     <text x="54" y="29" font-size="3.5" font-style="italic">Alternate Registers </text>
     <rect x="50" y="30" width="32" height="5" 
        style="fill:none;stroke:black;stroke-width:0.5px"/>
     <line x1="66" y1="30" x2="66" y2="35" 
           style="fill:none;stroke:black;stroke-width:0.5px"/>
     <text x="56" y="34" font-size="4">A'</text>
     <text x="72" y="34" font-size="4">F'</text>
     <rect x="50" y="35" width="32" height="5" 
        style="fill:none;stroke:black;stroke-width:0.5px"/>
     <line x1="66" y1="35" x2="66" y2="40" 
           style="fill:none;stroke:black;stroke-width:0.5px"/>
     <text x="56" y="39" font-size="4">B'</text>
     <text x="72" y="39" font-size="4">C'</text>
     <rect x="50" y="40" width="32" height="5" 
        style="fill:none;stroke:black;stroke-width:0.5px"/>
     <line x1="66" y1="40" x2="66" y2="45" 
           style="fill:none;stroke:black;stroke-width:0.5px"/>
     <text x="56" y="44" font-size="4">D'</text>
     <text x="72" y="44" font-size="4">E'</text>
     <rect x="50" y="45" width="32" height="5" 
        style="fill:none;stroke:black;stroke-width:0.5px"/>
     <line x1="66" y1="45" x2="66" y2="50" 
           style="fill:none;stroke:black;stroke-width:0.5px"/>
     <text x="56" y="49" font-size="4">H'</text>
     <text x="72" y="49" font-size="4">L'</text>
</svg>
