<svg width="120.00" height="150.00" 
     viewBox="0.0 0.0 120.0 150.0" 
     viewPort="0 0 120px 150px" 
     version="1.1"
     xmlns:xlink="http://www.w3.org/1999/xlink"
     xmlns="http://www.w3.org/2000/svg">
    <defs>
        <marker id="startarrow" markerWidth="4" markerHeight="3" refX="4" refY="1.5" orient="auto">
            <polygon points="4 0, 4 3, 0 1.5" fill="black" />
        </marker>
        <marker id="endarrow" markerWidth="4" markerHeight="3" refX="0" refY="1.5" orient="auto" markerUnits="strokeWidth">
            <polygon points="0 0, 4 1.5, 0 3" fill="black" />
        </marker>
    </defs>
     <rect x="40" y="10" width="50" height="130" 
        style="fill:none;stroke:black;stroke-width:0.5px"/>
     <text x="60" y="65" font-size="4">Z80</text>
     
     <text x="42" y="16" font-size="3">27</text>
     <line x1="32" y1="15" x2="40" y2="15" 
           style="fill:none;stroke:black;stroke-width:0.5px" marker-start="url(#startarrow)"/>
     <text x="20" y="16" text-decoration="overline" font-size="3">M1</text>
     
     <text x="42" y="26" font-size="3">19</text>
     <line x1="32" y1="25" x2="40" y2="25" 
           style="fill:none;stroke:black;stroke-width:0.5px" marker-start="url(#startarrow)"/>
     <text x="20" y="26" text-decoration="overline" font-size="3">MREQ</text>
     
     <text x="42" y="31" font-size="3">20</text>
     <line x1="32" y1="30" x2="40" y2="30" 
           style="fill:none;stroke:black;stroke-width:0.5px" marker-start="url(#startarrow)"/>
     <text x="20" y="31" text-decoration="overline" font-size="3">IORQ</text>
     
     <text x="42" y="36" font-size="3">21</text>
     <line x1="32" y1="35" x2="40" y2="35" 
           style="fill:none;stroke:black;stroke-width:0.5px" marker-start="url(#startarrow)"/>
     <text x="20" y="36" text-decoration="overline" font-size="3">RD</text>
     
     <text x="42" y="41" font-size="3">22</text>
     <line x1="32" y1="40" x2="40" y2="40" 
           style="fill:none;stroke:black;stroke-width:0.5px" marker-start="url(#startarrow)"/>
     <text x="20" y="41" text-decoration="overline" font-size="3">WR</text>
     
     <text x="42" y="46" font-size="3">28</text>
     <line x1="32" y1="45" x2="40" y2="45" 
           style="fill:none;stroke:black;stroke-width:0.5px" marker-start="url(#startarrow)"/>
     <text x="20" y="46" text-decoration="overline" font-size="3">RFSH</text>
     
     <!--      cpu control -->
     <text x="42" y="66" font-size="3">18</text>
     <line x1="32" y1="65" x2="40" y2="65" 
           style="fill:none;stroke:black;stroke-width:0.5px" marker-start="url(#startarrow)"/>
     <text x="20" y="66" text-decoration="overline" font-size="3">HALT</text>
     
     <text x="42" y="76" font-size="3">24</text>
     <line x1="30" y1="75" x2="38" y2="75" 
           style="fill:none;stroke:black;stroke-width:0.5px" marker-end="url(#endarrow)"/>
     <text x="20" y="76" text-decoration="overline" font-size="3">WAIT</text>
     
     <text x="42" y="86" font-size="3">16</text>
     <line x1="30" y1="85" x2="38" y2="85" 
           style="fill:none;stroke:black;stroke-width:0.5px" marker-end="url(#endarrow)"/>
     <text x="20" y="86" text-decoration="overline" font-size="3">INT</text>
     
     <text x="42" y="91" font-size="3">17</text>
     <line x1="30" y1="90" x2="38" y2="90" 
           style="fill:none;stroke:black;stroke-width:0.5px" marker-end="url(#endarrow)"/>
     <text x="20" y="91" text-decoration="overline" font-size="3">NMI</text>
     
     <text x="42" y="101" font-size="3">26</text>
     <line x1="30" y1="100" x2="38" y2="100" 
           style="fill:none;stroke:black;stroke-width:0.5px" marker-end="url(#endarrow)"/>
     <text x="20" y="101" text-decoration="overline" font-size="3">RESET</text>
     
    <!--      bus -->
     <text x="42" y="111" font-size="3">25</text>
     <line x1="30" y1="110" x2="38" y2="110" 
           style="fill:none;stroke:black;stroke-width:0.5px" marker-end="url(#endarrow)"/>
     <text x="20" y="111" text-decoration="overline" font-size="3">BUSRQ</text>
     
     <text x="42" y="116" font-size="3">23</text>
     <line x1="32" y1="115" x2="40" y2="115" 
           style="fill:none;stroke:black;stroke-width:0.5px" marker-start="url(#startarrow)"/>
     <text x="20" y="116" text-decoration="overline" font-size="3">BUSAK</text>
     
    <!--      other -->
     <text x="43" y="126" font-size="3">6</text>
     <line x1="30" y1="125" x2="38" y2="125" 
           style="fill:none;stroke:black;stroke-width:0.5px" marker-end="url(#endarrow)"/>
     <text x="22" y="126" font-size="3">Clk</text>
     
     <text x="42" y="131" font-size="3">11</text>
     <line x1="30" y1="130" x2="38" y2="130" 
           style="fill:none;stroke:black;stroke-width:0.5px" marker-end="url(#endarrow)"/>
     <text x="22" y="131" font-size="3">V+</text>
     
     <text x="42" y="136" font-size="3">29</text>
     <line x1="30" y1="135" x2="38" y2="135" 
           style="fill:none;stroke:black;stroke-width:0.5px" marker-end="url(#endarrow)"/>
     <text x="22" y="136" font-size="3">Gnd</text>
     <!--      addresses -->
     <text x="85" y="16" font-size="3">30</text>
     <line x1="90" y1="15" x2="100" y2="15" 
           style="fill:none;stroke:black;stroke-width:0.5px" marker-end="url(#endarrow)"/>
     <text x="103" y="16" font-size="3">A<tspan dy="1">0</tspan></text>

     <text x="85" y="21" font-size="3">31</text>
     <line x1="90" y1="20" x2="100" y2="20" 
           style="fill:none;stroke:black;stroke-width:0.5px" marker-end="url(#endarrow)"/>
     <text x="103" y="21" font-size="3">A<tspan dy="1">1</tspan></text>
     
     <text x="85" y="26" font-size="3">32</text>
     <line x1="90" y1="25" x2="100" y2="25" 
           style="fill:none;stroke:black;stroke-width:0.5px" marker-end="url(#endarrow)"/>
     <text x="103" y="26" font-size="3">A<tspan dy="1">2</tspan></text>
     
     <text x="85" y="31" font-size="3">33</text>
     <line x1="90" y1="30" x2="100" y2="30" 
           style="fill:none;stroke:black;stroke-width:0.5px" marker-end="url(#endarrow)"/>
     <text x="103" y="31" font-size="3">A<tspan dy="1">3</tspan></text>
     
     <text x="85" y="36" font-size="3">34</text>
     <line x1="90" y1="35" x2="100" y2="35" 
           style="fill:none;stroke:black;stroke-width:0.5px" marker-end="url(#endarrow)"/>
     <text x="103" y="36" font-size="3">A<tspan dy="1">4</tspan></text>
     
     <text x="85" y="41" font-size="3">35</text>
     <line x1="90" y1="40" x2="100" y2="40" 
           style="fill:none;stroke:black;stroke-width:0.5px" marker-end="url(#endarrow)"/>
     <text x="103" y="41" font-size="3">A<tspan dy="1">5</tspan></text>
     
     <text x="85" y="46" font-size="3">36</text>
     <line x1="90" y1="45" x2="100" y2="45" 
           style="fill:none;stroke:black;stroke-width:0.5px" marker-end="url(#endarrow)"/>
     <text x="103" y="46" font-size="3">A<tspan dy="1">6</tspan></text>
     
     <text x="85" y="51" font-size="3">37</text>
     <line x1="90" y1="50" x2="100" y2="50" 
           style="fill:none;stroke:black;stroke-width:0.5px" marker-end="url(#endarrow)"/>
     <text x="103" y="51" font-size="3">A<tspan dy="1">7</tspan></text>
     
     <text x="85" y="56" font-size="3">38</text>
     <line x1="90" y1="55" x2="100" y2="55" 
           style="fill:none;stroke:black;stroke-width:0.5px" marker-end="url(#endarrow)"/>
     <text x="103" y="56" font-size="3">A<tspan dy="1">8</tspan></text>
     
     <text x="85" y="61" font-size="3">39</text>
     <line x1="90" y1="60" x2="100" y2="60" 
           style="fill:none;stroke:black;stroke-width:0.5px" marker-end="url(#endarrow)"/>
     <text x="103" y="61" font-size="3">A<tspan dy="1">9</tspan></text>
     
     <text x="85" y="66" font-size="3">40</text>
     <line x1="90" y1="65" x2="100" y2="65" 
           style="fill:none;stroke:black;stroke-width:0.5px" marker-end="url(#endarrow)"/>
     <text x="103" y="66" font-size="3">A<tspan dy="1">10</tspan></text>
     
     <text x="86.5" y="71" font-size="3">1</text>
     <line x1="90" y1="70" x2="100" y2="70" 
           style="fill:none;stroke:black;stroke-width:0.5px" marker-end="url(#endarrow)"/>
     <text x="103" y="71" font-size="3">A<tspan dy="1">11</tspan></text>
     
     <text x="86.5" y="76" font-size="3">2</text>
     <line x1="90" y1="75" x2="100" y2="75" 
           style="fill:none;stroke:black;stroke-width:0.5px" marker-end="url(#endarrow)"/>
     <text x="103" y="76" font-size="3">A<tspan dy="1">12</tspan></text>
     
     <text x="86.5" y="81" font-size="3">3</text>
     <line x1="90" y1="80" x2="100" y2="80" 
           style="fill:none;stroke:black;stroke-width:0.5px" marker-end="url(#endarrow)"/>
     <text x="103" y="81" font-size="3">A<tspan dy="1">13</tspan></text>
     
     <text x="86.5" y="86" font-size="3">4</text>
     <line x1="90" y1="85" x2="100" y2="85" 
           style="fill:none;stroke:black;stroke-width:0.5px" marker-end="url(#endarrow)"/>
     <text x="103" y="86" font-size="3">A<tspan dy="1">14</tspan></text>
     
     <text x="86.5" y="91" font-size="3">5</text>
     <line x1="90" y1="90" x2="100" y2="90" 
           style="fill:none;stroke:black;stroke-width:0.5px" marker-end="url(#endarrow)"/>
     <text x="103" y="91" font-size="3">A<tspan dy="1">15</tspan></text>
    <!--      data -->
    <text x="85" y="101" font-size="3">14</text>
     <line x1="90" y1="100" x2="100" y2="100" 
           style="fill:none;stroke:black;stroke-width:0.5px" marker-end="url(#endarrow)"/>
     <text x="103" y="101" font-size="3">D<tspan dy="1">0</tspan></text>

     <text x="85" y="106" font-size="3">15</text>
     <line x1="90" y1="105" x2="100" y2="105" 
           style="fill:none;stroke:black;stroke-width:0.5px" marker-end="url(#endarrow)"/>
     <text x="103" y="106" font-size="3">D<tspan dy="1">1</tspan></text>
     
     <text x="85" y="111" font-size="3">12</text>
     <line x1="90" y1="110" x2="100" y2="110" 
           style="fill:none;stroke:black;stroke-width:0.5px" marker-end="url(#endarrow)"/>
     <text x="103" y="111" font-size="3">D<tspan dy="1">2</tspan></text>
     
     <text x="86.5" y="116" font-size="3">8</text>
     <line x1="90" y1="115" x2="100" y2="115" 
           style="fill:none;stroke:black;stroke-width:0.5px" marker-end="url(#endarrow)"/>
     <text x="103" y="116" font-size="3">D<tspan dy="1">3</tspan></text>
     
     <text x="86.5" y="121" font-size="3">7</text>
     <line x1="90" y1="120" x2="100" y2="120" 
           style="fill:none;stroke:black;stroke-width:0.5px" marker-end="url(#endarrow)"/>
     <text x="103" y="121" font-size="3">D<tspan dy="1">4</tspan></text>
     
     <text x="86.5" y="126" font-size="3">9</text>
     <line x1="90" y1="125" x2="100" y2="125" 
           style="fill:none;stroke:black;stroke-width:0.5px" marker-end="url(#endarrow)"/>
     <text x="103" y="126" font-size="3">D<tspan dy="1">5</tspan></text>
     
     <text x="85" y="131" font-size="3">10</text>
     <line x1="90" y1="130" x2="100" y2="130" 
           style="fill:none;stroke:black;stroke-width:0.5px" marker-end="url(#endarrow)"/>
     <text x="103" y="131" font-size="3">D<tspan dy="1">6</tspan></text>
     
     <text x="85" y="136" font-size="3">13</text>
     <line x1="90" y1="135" x2="100" y2="135" 
           style="fill:none;stroke:black;stroke-width:0.5px" marker-end="url(#endarrow)"/>
     <text x="103" y="136" font-size="3">D<tspan dy="1">7</tspan></text>
     
</svg>
