<svg width="134.00" height="120.00"
     viewBox="0.0 0.0 134.0 120.0"
     viewPort="0 0 134px 120px"
     version="1.1"
     xmlns:xlink="http://www.w3.org/1999/xlink"
     xmlns="http://www.w3.org/2000/svg">
    <defs>
        <g id="and" transform="scale(0.2)">
            <!--<line x1="10" y1="25" x2="30" y2="25" style="fill:#ffffff;stroke:#000000" stroke-width="2px"/>
            <line x1="10" y1="75" x2="30" y2="75" style="fill:#ffffff;stroke:#000000" stroke-width="2px"/>-->
            <!--output-->
<!--             <line x1="90" y1="50" x2="130" y2="50" style="fill:#ffffff;stroke:#000000" stroke-width="2px"/> -->
            <polyline
                    points="70,10 30,10 30,90, 70,90"
                    style="fill:#ffffff;stroke:#000000"
                    stroke-width="2px"
                    id="polyline5"/>
            <path
                    id="ellipse8"
                    style="fill:#ffffff;stroke:#000000;stroke-width:2px"
                    type="arc"
                    cx="70"
                    cy="50"
                    rx="40"
                    ry="40"
                    start="4.7"
                    end="1.5656212"
                    open="true"
                    d="m 69.504453,10.00307 a 40,40 0 0 1 34.935157,19.652064 40,40 0 0 1 0.352,40.081724 40,40 0 0 1 -34.584606,20.262606"/>
        </g>

        <g id="or" transform="scale(0.2)">
            <!--inputs-->
            <!--<line
                    x1="10"
                    y1="25"
                    x2="40"
                    y2="25"
                    style="fill:#ffffff;stroke:#000000"
                    stroke-width="2px"
                    id="line5"/>
            <line
                    x1="10"
                    y1="75"
                    x2="40"
                    y2="75"
                    style="fill:#ffffff;stroke:#000000"
                    stroke-width="2px"
                    id="line7"/>-->
            <!--output-->
          <!--  <line
                    x1="110"
                    y1="50"
                    x2="130"
                    y2="50"
                    style="fill:#ffffff;stroke:#000000"
                    stroke-width="2px"
                    id="line9"/>-->
            <!--symbol-->
            <line
                    x1="30"
                    y1="10"
                    x2="70"
                    y2="10"
                    style="fill:#ffffff;stroke:#000000"
                    stroke-width="2px"
                    id="line11"/>
            <line
                    x1="30"
                    y1="90"
                    x2="70"
                    y2="90"
                    style="fill:#ffffff;stroke:#000000"
                    stroke-width="2px"
                    id="line13"/>
            <path
                    id="ellipse8"
                    style="fill:none;stroke:#000000;stroke-width:2px"
                    type="arc"
                    cx="70"
                    cy="50"
                    rx="40"
                    ry="40"
                    start="4.7"
                    end="1.5656212"
                    open="true"
                    d="m 69.504453,10.00307 a 40,40 0 0 1 34.935157,19.652064 40,40 0 0 1 0.352,40.081724 40,40 0 0 1 -34.584606,20.262606"/>
            <path
                    id="ellipse9"
                    style="fill:none;stroke:#000000;stroke-width:2px"
                    type="arc"
                    cx="30"
                    cy="50"
                    rx="12.351695"
                    ry="40"
                    start="4.7"
                    end="1.5656212"
                    open="true"
                    d="M 29.846979,10.00307 A 12.351695,40 0 0 1 40.634688,29.655134 12.351695,40 0 0 1 40.743385,69.736858 12.351695,40 0 0 1 30.063921,89.999464"/>
        </g>
        <g id="xor" transform="scale(0.2)">
  <!--inputs-->
<!--  <line
     x1="10"
     y1="25"
     x2="35"
     y2="25"
     style="fill:#ffffff;stroke:#000000"
     stroke-width="2px"
     id="line5" />
  <line
     x1="10"
     y1="75"
     x2="35"
     y2="75"
     style="fill:#ffffff;stroke:#000000"
     stroke-width="2px"
            id="line7" />-->
  <!--output-->
  <line
     x1="110"
     y1="50"
     x2="130"
     y2="50"
     style="fill:#ffffff;stroke:#000000"
     stroke-width="2px"
     id="line9" />-->
  <!--symbol-->
  <line
     x1="30"
     y1="10"
     x2="70"
     y2="10"
     style="fill:#ffffff;stroke:#000000"
     stroke-width="2px"
     id="line11" />
  <line
     x1="30"
     y1="90"
     x2="70"
     y2="90"
     style="fill:#ffffff;stroke:#000000"
     stroke-width="2px"
     id="line13" />
  <path
     id="ellipse8"
     style="fill:none;stroke:#000000;stroke-width:2px"
     type="arc"
     cx="70"
     cy="50"
     rx="40"
     ry="40"
     start="4.7"
     end="1.5656212"
     open="true"
     d="m 69.504453,10.00307 a 40,40 0 0 1 34.935157,19.652064 40,40 0 0 1 0.352,40.081724 40,40 0 0 1 -34.584606,20.262606" />
  <path
     id="ellipse9"
     style="fill:none;stroke:#000000;stroke-width:2px"
     type="arc"
     cx="30"
     cy="50"
     rx="12.351695"
     ry="40"
     start="4.7"
     end="1.5656212"
     open="true"
     d="M 29.846979,10.00307 A 12.351695,40 0 0 1 40.634688,29.655134 12.351695,40 0 0 1 40.743385,69.736858 12.351695,40 0 0 1 30.063921,89.999464" />
  <g transform="translate(-5.0 0.0)">
    <path
        id="ellipse10"
        style="fill:none;stroke:#000000;stroke-width:2px"
        type="arc"
        cx="15"
        cy="50"
        rx="12.351695"
        ry="40"
        start="4.7"
        end="1.5656212"
        open="true"
        d="M 29.846979,10.00307 A 12.351695,40 0 0 1 40.634688,29.655134 12.351695,40 0 0 1 40.743385,69.736858 12.351695,40 0 0 1 30.063921,89.999464" />
    </g>
        </g>
        <g id="mux01">
                <polyline points="13,5 13,10"  style="fill:none;stroke:lightskyblue;stroke-width:0.5px;"/>
                <rect x="10" y="10" rx="5" ry="5" width="6" height="15" style="fill:none;stroke:black;stroke-width:0.5px;"/>
                <text x="12" y="13" font-size="3">0</text>
               <!-- <text x="11.5" y="15" font-size="3">M</text>
                <text x="11.5" y="17.5" font-size="3">U</text>
                <text x="11.5" y="20" font-size="3">X</text>-->
                <text x="12" y="23" font-size="3">1</text>
            </g>
        <g id="mux0123">
                <polyline points="3,-7 3,0"   style="fill:none;stroke:lightskyblue;stroke-width:0.5px;"/>
                <rect x="0" y="0" rx="5" ry="5" width="6" height="70" style="fill:none;stroke:black;stroke-width:0.5px;"/>
                <text x="2" y="6" font-size="4">0</text>
                <!--<text x="1.5" y="15" font-size="3">M</text>
                <text x="1.5" y="17.5" font-size="3">U</text>
                <text x="1.5" y="20" font-size="3">X</text>-->
                <text x="2" y="26" font-size="4">1</text>
                <text x="2" y="50" font-size="4">2</text>
                <text x="2" y="66" font-size="4">3</text>
        </g>
        <g id="not" transform="scale(0.125)">
            <!--inputs-->
            <line x1= "10" y1="50" x2="30" y2="50" style="fill:#ffffff;stroke:#000000" stroke-width="2px"/>
            <!--output-->
            <line x1= "94" y1="50" x2="130" y2="50" style="fill:#ffffff;stroke:#000000" stroke-width="2px"/>
            <circle cx="93" cy="50" r="7" style="fill:#ffffff;stroke:#000000" />
            <polyline
                points="30,10 90,50 30,90 30,10 90,50"
                style="fill:none;stroke:#000000"
                stroke-width="2px"
                id="polyline5" />
        </g>
                <marker id="arrow" markerWidth="10" markerHeight="10" refX="0" refY="1.5" orient="auto" markerUnits="strokeWidth">
            <path d="M0,0 L0,3 L4.5,2 z" fill="black" />
            </marker>
    </defs>
    <rect x="10" y="10" width="100" height="100" style="fill:none;stroke:black;stroke-width:0.5px;"/>
    <text x="2" y="32" font-size="4">A</text>
    <text x="2" y="62" font-size="4">B</text>
    <text x="2" y="78" font-size="3">Less</text>
    <polyline points="5,30 30,30" style="fill:none;stroke:black;stroke-width:0.5px;"/>
    <circle cx="15" cy="30" r="0.5" style="fill:none;stroke:black;stroke-width:0.5px;"/>
    <polyline points="10,30 15,30 15,38.5 18,38.5" style="fill:none;stroke:black;stroke-width:0.5px;"/>
    <use x="14" y="32" href="#not"/>
    <use x="20" y="17" href="#mux01"/>
    <polyline points="5,64 30,64" style="fill:none;stroke:black;stroke-width:0.5px;"/>
    <circle cx="15" cy="64" r="0.5" style="fill:none;stroke:black;stroke-width:0.5px;"/>
    <polyline points="10,64 15,64 15,72.5 18,72.5" style="fill:none;stroke:black;stroke-width:0.5px;"/>
    <use x="14" y="66" href="#not"/>
    <use x="20" y="51" href="#mux01"/>
    <g transform="translate(20,0)">
        <polyline points="46,59 20,59 20,15 46,15" style="fill:none;stroke:black;stroke-width:0.5px;"/>
        <polyline points="46,68 25,68 25,25 46,25" style="fill:none;stroke:black;stroke-width:0.5px;"/>
        <circle cx="20" cy="35" r="0.5" style="fill:none;stroke:black;stroke-width:0.5px;"/>
        <circle cx="25" cy="45" r="0.5" style="fill:none;stroke:black;stroke-width:0.5px;"/>
        <polyline points="16,35  48,35" style="fill:none;stroke:black;stroke-width:0.5px;"/>
        <polyline points="25,45  48,45" style="fill:none;stroke:black;stroke-width:0.5px;"/>
        <use x="40" y="10" href="#and"/>
        <use x="40" y="30" href="#or"/>
        <rect x="46" y="56" width="16" height="16" style="fill:none;stroke:black;stroke-width:0.5px;"/>
        <text x="52" y="66" font-size="7" font-weight="bold">+</text>
        <polyline points="16,68 25,68" style="fill:none;stroke:black;stroke-width:0.5px;"/>
      <!--  <circle cx="20" cy="59" r="0.5" style="fill:none;stroke:black;stroke-width:0.5px;"/>-->
        <circle cx="25" cy="68" r="0.5" style="fill:none;stroke:black;stroke-width:0.5px;"/>

        <polyline points="62,20 75,20" style="fill:none;stroke:black;stroke-width:0.5px;"/>
        <polyline points="62,40 75,40" style="fill:none;stroke:black;stroke-width:0.5px;"/>
        <polyline points="62,64 75,64" style="fill:none;stroke:black;stroke-width:0.5px;"/>
        <polyline points="-12,80 75,80" style="fill:none;stroke:black;stroke-width:0.5px;"/>
        <use x="75" y="15" href="#mux0123"/>
        <polyline points="81,50 95,50" style="fill:none;stroke:black;stroke-width:0.5px;"/>
        <text x="95" y="51" font-size="4">Y</text>
        <text x="61" y="5" font-size="3" style="fill:black;">Carry in</text>
        <polyline points="65,8 65,53 54,53 54,54" style="fill:none;stroke:black;stroke-width:0.5px;" marker-end="url(#arrow)"/>
        <polyline points="54,72 54,93" style="fill:none;stroke:black;stroke-width:0.5px;" marker-end="url(#arrow)"/>
        <polyline points="70,64  70,93" style="fill:none;stroke:black;stroke-width:0.5px;"
                  marker-end="url(#arrow)"/>
        <circle cx="70" cy="64" r="0.5" style="fill:none;stroke:black;stroke-width:0.5px;"/>
        <polyline points="35,59  35,93" style="fill:none;stroke:black;stroke-width:0.5px;"
                  marker-end="url(#arrow)"/>
        <polyline points="40,68  40,93" style="fill:none;stroke:black;stroke-width:0.5px;"
                  marker-end="url(#arrow)"/>
        <circle cx="35" cy="59" r="0.5" style="fill:none;stroke:black;stroke-width:0.5px;"/>
        <circle cx="40" cy="68" r="0.5" style="fill:none;stroke:black;stroke-width:0.5px;"/>
       <!-- <text x="61" y="100" font-size="3" style="fill:black;">Carry out</text>-->
        <polyline points="70,88 95,88" style="fill:none;stroke:black;stroke-width:0.5px;" marker-end="url(#arrow)"/>
        <circle cx="70" cy="88" r="0.5" style="fill:none;stroke:black;stroke-width:0.5px;"/>
        <text x="98" y="89" font-size="3" style="fill:black;">Set</text>
        <rect x="20" y="95" width="55" height="10" style="fill:none;stroke:black;stroke-width:0.5px;"/>
        <polyline points="12.5,60 23,60 23,90 30,90 30,93" style="fill:none;stroke:lightskyblue;stroke-width:0.5px;" marker-end="url(#arrow)"/>
        <text x="35" y="100" font-size="4" style="fill:black;">Overflow Detection</text>
        <polyline points="75,100 95,100" style="fill:none;stroke:black;stroke-width:0.5px;"/>
        <text x="96" y="101" font-size="3" style="fill:black;">OF</text>
    </g>
    <text x="30" y="20" font-size="3" style="fill:lightskyblue;">Ainvert</text>
    <text x="30" y="54" font-size="3" style="fill:lightskyblue;">Binvert</text>
    <text x="92" y="5" font-size="3" style="fill:lightskyblue;">Operation</text>
</svg>
