<svg width="85px" 
     height="50px" 
     viewBox="0.0 0.0 85.00 50.00" 
     viewPort = "0 0 85 50" 
     xmlns="http://www.w3.org/2000/svg" version="1.1">
    <rect x="3" y="0" width="38" height="40" style="fill:none;stroke:black;stroke-width:0.5px;"/>
    <text x="5" y="5" font-size="4"  style="fill:blue;">Addition:</text>
    <text x="5" y="10" font-size="5"  style="fill:blue;">9+5=14</text>
    
    <text x="10" y="20" font-size="5">1001</text>
    <text x="10" y="25" font-size="5">0101</text>
    <text x="5" y="25" font-size="5">+</text>
    <text x="15" y="29" font-size="4" style="fill:red;">1</text>
    <line x1="10" y1="30" x2="20" y2="30" style="fill:none;stroke:black;stroke-width:0.5px;"/>
    <text x="10" y="35" font-size="5">1110</text>
    <line x1="10" y1="37" x2="20" y2="37" style="fill:none;stroke:black;"/>
    
    <rect x="43" y="0" width="38" height="40" style="fill:none;stroke:black;stroke-width:0.5px;"/>
    <text x="45" y="5" font-size="4"  style="fill:blue;">Addition w/ carry flag</text>
    <text x="45" y="10" font-size="5"  style="fill:blue;">9+8=17</text>
    
    <text x="50" y="20" font-size="5">1001</text>
    <text x="50" y="25" font-size="5">1000</text>
    <text x="45" y="25" font-size="5">+</text>
    <text x="50" y="29" font-size="4" style="fill:red;">1</text>
    <line x1="50" y1="30" x2="60" y2="30" style="fill:none;stroke:black;stroke-width:0.5px;"/>
    <text x="47.5" y="35" font-size="5">10001</text>
    <text x="63" y="32" font-size="4" style="fill:red;">carry</text>
    <text x="63" y="36" font-size="4" style="fill:red;">flag</text>
    <text x="78" y="36" font-size="10" style="fill:red;">!</text>´
    <line x1="50" y1="37" x2="60" y2="37" style="fill:none;stroke:black;"/>
    
</svg>

