<svg width="120.00" height="60.00" 
     viewBox="0.0 0.0 120.0 60.0" 
     viewPort="0 0 120px 60px" 
     version="1.1"
     xmlns:xlink="http://www.w3.org/1999/xlink"
     xmlns="http://www.w3.org/2000/svg">
    
    <line x1="32" y1="10" x2="32" y2="20" style="fill:none;stroke:black;stroke-width:0.7px;"/>
    <text x="31" y="8" font-size="3">A</text>
    <line x1="58" y1="10" x2="58" y2="20" style="fill:none;stroke:black;stroke-width:0.7px;"/>
    <text x="57" y="8" font-size="3">B</text>
    
    <line x1="15" y1="25" x2="28" y2="25" style="fill:none;stroke:black;stroke-width:0.7px;"/>
    <text x="5" y="25" font-size="3">Status</text>
    <text x="5" y="28" font-size="3">flags (in)</text>
    <line x1="15" y1="32" x2="28" y2="32" style="fill:none;stroke:black;stroke-width:0.7px;"/>
    <text x="5" y="32" font-size="3">Opcode</text>
    <line x1="64" y1="32" x2="70" y2="32" style="fill:none;stroke:black;stroke-width:0.7px;"/>
    <text x="72" y="32" font-size="3">Status flags (out)</text>
    <polyline points="20,20 40,20 45,25 50,20 70,20 60,40 30,40 20,20 40,20" style="fill:skyblue;stroke:black;stroke-width:0.5px;"/>
    <text x="40" y="35" font-size="4">ALU</text>
    <!--     out -->
    <line x1="45" y1="40" x2="45" y2="50" style="fill:none;stroke:black;stroke-width:0.7px;"/>
    <text x="44" y="53" font-size="3">Y</text>
   
</svg>
