<svg width="200.00" height="120.00" 
     viewBox="0.0 0.0 200.0 120.0" 
     viewPort="0 0 200px 120px" 
     version="1.1"
     xmlns:xlink="http://www.w3.org/1999/xlink"
     xmlns="http://www.w3.org/2000/svg">
    
    <symbol id="carry_lookahead">
        <text x="10" y="5" font-size="5">4-bit carry-lookahead</text>
        <rect x="10" y="10" width="160" height="90" style="fill:none;stroke:black;stroke-width:0.5px;"/>
       <!-- <text x="148" y="5" font-size="4">g
            <tspan baseline-shift = "sub">0</tspan>
        </text>
        <text x="142" y="5" font-size="4">p
             <tspan baseline-shift = "sub">0</tspan>
        </text>
        <text x="122" y="5" font-size="4">c
            <tspan baseline-shift = "sub">1</tspan>
        </text>
        <text x="108" y="5" font-size="4">g
            <tspan baseline-shift = "sub">1</tspan>
        </text>
        <text x="102" y="5" font-size="4">p
             <tspan baseline-shift = "sub">1</tspan>
        </text>
        <text x="80" y="5" font-size="4">c
            <tspan baseline-shift = "sub">2</tspan>
        </text>
        <text x="68" y="5" font-size="4">g
            <tspan baseline-shift = "sub">2</tspan>
        </text>
        <text x="62" y="5" font-size="4">p
             <tspan baseline-shift = "sub">2</tspan>
        </text>
        <text x="40" y="5" font-size="4">c
            <tspan baseline-shift = "sub">3</tspan>
        </text>
        <text x="28" y="5" font-size="4">g
            <tspan baseline-shift = "sub">3</tspan>
        </text>
        <text x="22" y="5" font-size="4">p
             <tspan baseline-shift = "sub">3</tspan>
        </text>-->
        
        <line x1="175" y1="16" x2="12" y2="16" style="fill:none;stroke:black;stroke-width:0.5px;"/>    
        <text x="176" y="17" font-size="4">P
             <tspan baseline-shift = "sub">3</tspan>
        </text>
        <line x1="175" y1="20" x2="12" y2="20" style="fill:none;stroke:black;stroke-width:0.5px;"/>    
        <text x="176" y="21" font-size="4">c
             <tspan baseline-shift = "sub">3</tspan>
        </text>
        <line x1="175" y1="24" x2="12" y2="24" style="fill:none;stroke:black;stroke-width:0.5px;"/>    
        <text x="176" y="25" font-size="4">G
             <tspan baseline-shift = "sub">3</tspan>
        </text>

    
        <line x1="175" y1="28" x2="12" y2="28" style="fill:none;stroke:black;stroke-width:0.5px;"/>    
        <text x="176" y="29" font-size="4">P
             <tspan baseline-shift = "sub">2</tspan>
        </text>
        <line x1="175" y1="32" x2="12" y2="32" style="fill:none;stroke:black;stroke-width:0.5px;"/>    
        <text x="176" y="33" font-size="4">c
             <tspan baseline-shift = "sub">2</tspan>
        </text>
        <line x1="175" y1="36" x2="12" y2="36" style="fill:none;stroke:black;stroke-width:0.5px;"/>    
        <text x="176" y="37" font-size="4">G
             <tspan baseline-shift = "sub">2</tspan>
        </text>
        
        <line x1="175" y1="40" x2="12" y2="40" style="fill:none;stroke:black;stroke-width:0.5px;"/>    
        <text x="176" y="41" font-size="4">P
             <tspan baseline-shift = "sub">1</tspan>
        </text>
        <line x1="175" y1="44" x2="12" y2="44" style="fill:none;stroke:black;stroke-width:0.5px;"/>    
        <text x="176" y="45" font-size="4">c
             <tspan baseline-shift = "sub">1</tspan>
        </text>
        <line x1="175" y1="48" x2="12" y2="48" style="fill:none;stroke:black;stroke-width:0.5px;"/>    
        <text x="176" y="49" font-size="4">G
             <tspan baseline-shift = "sub">1</tspan>
        </text>

    
        <line x1="175" y1="52" x2="12" y2="52" style="fill:none;stroke:black;stroke-width:0.5px;"/>    
        <text x="176" y="53" font-size="4">P
             <tspan baseline-shift = "sub">0</tspan>
        </text>
        <line x1="175" y1="56" x2="12" y2="56" style="fill:none;stroke:black;stroke-width:0.5px;"/>    
        <text x="176" y="57" font-size="4">c
             <tspan baseline-shift = "sub">0</tspan>
        </text>
        <line x1="175" y1="60" x2="12" y2="60" style="fill:none;stroke:black;stroke-width:0.5px;"/>    
        <text x="176" y="61" font-size="4">G
             <tspan baseline-shift = "sub">0</tspan>
        </text>
        <!-- pg + gg -->
       <!-- <line x1="150" y1="73" x2="150" y2="80" style="fill:none;stroke:black;stroke-width:0.5px;"  marker-end="url(#arrow)"/>
        <line x1="158" y1="73" x2="158" y2="80" style="fill:none;stroke:black;stroke-width:0.5px;" marker-end="url(#arrow)"/>
        <text x="148" y="70" font-size="4">PG</text>
        <text x="156" y="70" font-size="4">GG</text>-->
        
        <!-- matrix -->
        <line x1="162" y1="12" x2="162" y2="105" style="fill:none;stroke:black;stroke-width:0.5px;"/>
        <circle cx="162" cy="56" r="0.5" style="fill:red;stroke:red;stroke-width:0.5px;"/>
        <text x="161" y="107" font-size="4">c
             <tspan baseline-shift = "sub">0</tspan>
        </text>
        <!--         c1 -->
        <rect x="140" y="65" width="10" height="10" style="fill:none;stroke:black;stroke-width:0.5px;"/>
        <text x="142" y="70" font-size="4">&amp;</text>
        <rect x="150" y="85" width="10" height="10" style="fill:none;stroke:black;stroke-width:0.5px;"/>
        <text x="152" y="90" font-size="4">≥1</text>
        <line x1="157" y1="12" x2="157" y2="85" style="fill:none;stroke:black;stroke-width:0.5px;"/>
        <circle cx="157" cy="60" r="0.5" style="fill:red;stroke:red;stroke-width:0.5px;"/>
        <line x1="148" y1="12" x2="148" y2="65" style="fill:none;stroke:black;stroke-width:0.5px;"/>
        <circle cx="148" cy="56" r="0.5" style="fill:red;stroke:red;stroke-width:0.5px;"/>
        <line x1="142" y1="12" x2="142" y2="65" style="fill:none;stroke:black;stroke-width:0.5px;"/>
        <circle cx="142" cy="52" r="0.5" style="fill:red;stroke:red;stroke-width:0.5px;"/>
        <polyline points="146,75 146,80 152,80 152,85" style="fill:none;stroke:black;stroke-width:0.5px;"/>
        <line x1="155" y1="95" x2="155" y2="105" style="fill:none;stroke:black;stroke-width:0.5px;"/>
        <text x="155" y="107" font-size="4">c
             <tspan baseline-shift = "sub">1</tspan>
        </text>
        
        <!-- c2 -->
        <line x1="135" y1="12" x2="135" y2="85" style="fill:none;stroke:black;stroke-width:0.5px;"/>
        <circle cx="135" cy="48" r="0.5" style="fill:red;stroke:red;stroke-width:0.5px;"/>
        <line x1="130" y1="12" x2="130" y2="65" style="fill:none;stroke:black;stroke-width:0.5px;"/>
        <circle cx="130" cy="60" r="0.5" style="fill:red;stroke:red;stroke-width:0.5px;"/>
        <line x1="126" y1="12" x2="126" y2="65" style="fill:none;stroke:black;stroke-width:0.5px;"/>
        <circle cx="126" cy="40" r="0.5" style="fill:red;stroke:red;stroke-width:0.5px;"/>
        <line x1="120" y1="12" x2="120" y2="65" style="fill:none;stroke:black;stroke-width:0.5px;"/>
        <circle cx="120" cy="56" r="0.5" style="fill:red;stroke:red;stroke-width:0.5px;"/>
        
        <line x1="117" y1="12" x2="117" y2="65" style="fill:none;stroke:black;stroke-width:0.5px;"/>
        <circle cx="117" cy="52" r="0.5" style="fill:red;stroke:red;stroke-width:0.5px;"/>
        <line x1="114" y1="12" x2="114" y2="65" style="fill:none;stroke:black;stroke-width:0.5px;"/>
        <circle cx="114" cy="40" r="0.5" style="fill:red;stroke:red;stroke-width:0.5px;"/>
        
        <polyline points="128,75 128,80 132,80 132,85" style="fill:none;stroke:black;stroke-width:0.5px;"/>
        <polyline points="118,75 118,82 128,82 128,85" style="fill:none;stroke:black;stroke-width:0.5px;"/>
        <rect x="112" y="65" width="10" height="10" style="fill:none;stroke:black;stroke-width:0.5px;"/>
        <text x="114" y="70" font-size="4">&amp;</text>
        <rect x="124" y="65" width="10" height="10" style="fill:none;stroke:black;stroke-width:0.5px;"/>
        <text x="126" y="70" font-size="4">&amp;</text>
        <rect x="124" y="85" width="14" height="10" style="fill:none;stroke:black;stroke-width:0.5px;"/>
        <text x="126" y="90" font-size="4">≥1</text>
        <line x1="131" y1="95" x2="131" y2="105" style="fill:none;stroke:black;stroke-width:0.5px;"/>
        <text x="131" y="107" font-size="4">c
             <tspan baseline-shift = "sub">2</tspan>
        </text>
         
        <!-- c3 -->
        <rect x="72" y="65" width="12" height="10" style="fill:none;stroke:black;stroke-width:0.5px;"/>
        <text x="76" y="70" font-size="4">&amp;</text>
        <rect x="86" y="65" width="10" height="10" style="fill:none;stroke:black;stroke-width:0.5px;"/>
        <text x="88" y="70" font-size="4">&amp;</text>
        <rect x="98" y="65" width="10" height="10" style="fill:none;stroke:black;stroke-width:0.5px;"/>
        <text x="100" y="70" font-size="4">&amp;</text>
        <rect x="98" y="85" width="14" height="10" style="fill:none;stroke:black;stroke-width:0.5px;"/>
        <text x="100" y="90" font-size="4">≥1</text>
        <polyline points="79,75 79,82 101,82 101,85" style="fill:none;stroke:black;stroke-width:0.5px;"/>
        <polyline points="91,75 91,80 104,80 104,85" style="fill:none;stroke:black;stroke-width:0.5px;"/>
        <polyline points="103,75 103,78 107,78 107,85" style="fill:none;stroke:black;stroke-width:0.5px;"/>
        <line x1="74" y1="12" x2="74" y2="65" style="fill:none;stroke:black;stroke-width:0.5px;"/>
        <circle cx="74" cy="28" r="0.5" style="fill:red;stroke:red;stroke-width:0.5px;"/>
        <line x1="77" y1="12" x2="77" y2="65" style="fill:none;stroke:black;stroke-width:0.5px;"/>
        <circle cx="77" cy="40" r="0.5" style="fill:red;stroke:red;stroke-width:0.5px;"/>
        <line x1="80" y1="12" x2="80" y2="65" style="fill:none;stroke:black;stroke-width:0.5px;"/>
        <circle cx="80" cy="52" r="0.5" style="fill:red;stroke:red;stroke-width:0.5px;"/>
        <line x1="83" y1="12" x2="83" y2="65" style="fill:none;stroke:black;stroke-width:0.5px;"/>
        <circle cx="83" cy="60" r="0.5" style="fill:red;stroke:red;stroke-width:0.5px;"/>
        
        <line x1="88" y1="12" x2="88" y2="65" style="fill:none;stroke:black;stroke-width:0.5px;"/>
        <circle cx="88" cy="28" r="0.5" style="fill:red;stroke:red;stroke-width:0.5px;"/>
        <line x1="91" y1="12" x2="91" y2="65" style="fill:none;stroke:black;stroke-width:0.5px;"/>
        <circle cx="91" cy="40" r="0.5" style="fill:red;stroke:red;stroke-width:0.5px;"/>
        <line x1="94" y1="12" x2="94" y2="65" style="fill:none;stroke:black;stroke-width:0.5px;"/>
        <circle cx="94" cy="60" r="0.5" style="fill:red;stroke:red;stroke-width:0.5px;"/>
        
        <line x1="100" y1="12" x2="100" y2="65" style="fill:none;stroke:black;stroke-width:0.5px;"/>
        <circle cx="100" cy="28" r="0.5" style="fill:red;stroke:red;stroke-width:0.5px;"/>
        <line x1="106" y1="12" x2="106" y2="65" style="fill:none;stroke:black;stroke-width:0.5px;"/>
        <circle cx="106" cy="48" r="0.5" style="fill:red;stroke:red;stroke-width:0.5px;"/>
        
        <line x1="110" y1="12" x2="110" y2="85" style="fill:none;stroke:black;stroke-width:0.5px;"/>
        <circle cx="110" cy="36" r="0.5" style="fill:red;stroke:red;stroke-width:0.5px;"/>
        
        <line x1="105" y1="95" x2="105" y2="105" style="fill:none;stroke:black;stroke-width:0.5px;"/>
        <text x="105" y="107" font-size="4">c
             <tspan baseline-shift = "sub">3</tspan>
        </text>
        
        <!-- c4 -->
        <rect x="16" y="65" width="14" height="10" style="fill:none;stroke:black;stroke-width:0.5px;"/>
        <text x="18" y="70" font-size="4">&amp;</text>
        <rect x="32" y="65" width="12" height="10" style="fill:none;stroke:black;stroke-width:0.5px;"/>
        <text x="34" y="70" font-size="4">&amp;</text>
        <rect x="46" y="65" width="10" height="10" style="fill:none;stroke:black;stroke-width:0.5px;"/>
        <text x="48" y="70" font-size="4">&amp;</text>
        <rect x="58" y="65" width="10" height="10" style="fill:none;stroke:black;stroke-width:0.5px;"/>
        <text x="60" y="70" font-size="4">&amp;</text>
        <rect x="58" y="85" width="14" height="10" style="fill:none;stroke:black;stroke-width:0.5px;"/>
        <text x="60" y="90" font-size="4">≥1</text>
        <polyline points="25,75 25,82 60,82 60,85" style="fill:none;stroke:black;stroke-width:0.5px;"/>
        <polyline points="37,75 37,80 62,80 62,85" style="fill:none;stroke:black;stroke-width:0.5px;"/>
        <polyline points="52,75 52,78 65,78 65,85" style="fill:none;stroke:black;stroke-width:0.5px;"/>
        <polyline points="63,75 63,77 68,77 68,85" style="fill:none;stroke:black;stroke-width:0.5px;"/>
        
        
        <line x1="18" y1="12" x2="18" y2="65" style="fill:none;stroke:black;stroke-width:0.5px;"/>
        <circle cx="18" cy="16" r="0.5" style="fill:red;stroke:red;stroke-width:0.5px;"/>
        <line x1="21" y1="12" x2="21" y2="65" style="fill:none;stroke:black;stroke-width:0.5px;"/>
        <circle cx="21" cy="28" r="0.5" style="fill:red;stroke:red;stroke-width:0.5px;"/>
        <line x1="24" y1="12" x2="24" y2="65" style="fill:none;stroke:black;stroke-width:0.5px;"/>
        <circle cx="24" cy="40" r="0.5" style="fill:red;stroke:red;stroke-width:0.5px;"/>
        <line x1="27" y1="12" x2="27" y2="65" style="fill:none;stroke:black;stroke-width:0.5px;"/>
        <circle cx="27" cy="52" r="0.5" style="fill:red;stroke:red;stroke-width:0.5px;"/>
        <line x1="29" y1="12" x2="29" y2="65" style="fill:none;stroke:black;stroke-width:0.5px;"/>
        <circle cx="29" cy="60" r="0.5" style="fill:red;stroke:red;stroke-width:0.5px;"/>
        
        
        <line x1="34" y1="12" x2="34" y2="65" style="fill:none;stroke:black;stroke-width:0.5px;"/>
        <circle cx="34" cy="16" r="0.5" style="fill:red;stroke:red;stroke-width:0.5px;"/>
        <line x1="37" y1="12" x2="37" y2="65" style="fill:none;stroke:black;stroke-width:0.5px;"/>
        <circle cx="37" cy="28" r="0.5" style="fill:red;stroke:red;stroke-width:0.5px;"/>
        <line x1="40" y1="12" x2="40" y2="65" style="fill:none;stroke:black;stroke-width:0.5px;"/>
        <circle cx="40" cy="40" r="0.5" style="fill:red;stroke:red;stroke-width:0.5px;"/>
        <line x1="43" y1="12" x2="43" y2="65" style="fill:none;stroke:black;stroke-width:0.5px;"/>
        <circle cx="43" cy="60" r="0.5" style="fill:red;stroke:red;stroke-width:0.5px;"/>

        
        <line x1="47" y1="12" x2="47" y2="65" style="fill:none;stroke:black;stroke-width:0.5px;"/>
        <circle cx="47" cy="16" r="0.5" style="fill:red;stroke:red;stroke-width:0.5px;"/>
        <line x1="51" y1="12" x2="51" y2="65" style="fill:none;stroke:black;stroke-width:0.5px;"/>
        <circle cx="51" cy="28" r="0.5" style="fill:red;stroke:red;stroke-width:0.5px;"/>
        <line x1="54" y1="12" x2="54" y2="65" style="fill:none;stroke:black;stroke-width:0.5px;"/>
        <circle cx="54" cy="48" r="0.5" style="fill:red;stroke:red;stroke-width:0.5px;"/>
        
        <line x1="60" y1="12" x2="60" y2="65" style="fill:none;stroke:black;stroke-width:0.5px;"/>
        <circle cx="60" cy="16" r="0.5" style="fill:red;stroke:red;stroke-width:0.5px;"/>
        <line x1="66" y1="12" x2="66" y2="65" style="fill:none;stroke:black;stroke-width:0.5px;"/>
        <circle cx="66" cy="36" r="0.5" style="fill:red;stroke:red;stroke-width:0.5px;"/>
        
        <line x1="70" y1="12" x2="70" y2="85" style="fill:none;stroke:black;stroke-width:0.5px;"/>
        <circle cx="70" cy="24" r="0.5" style="fill:red;stroke:red;stroke-width:0.5px;"/>
        
        <line x1="65" y1="95" x2="65" y2="105" style="fill:none;stroke:black;stroke-width:0.5px;"/>
        <text x="65" y="107" font-size="4">c
             <tspan baseline-shift = "sub">4</tspan>
        </text>
    </symbol>

    <use x="0" y="10" href="#carry_lookahead"/>

</svg>
