<svg width="180px" 
     height="100px" 
     viewBox="0.0 0.0 180.00 100.00" 
     viewPort = "0 0 180 100" 
     xmlns="http://www.w3.org/2000/svg" version="1.1">
    <defs>
            <g id="alu" transform="scale(0.9)">
                <polyline points="10,5 10,10 10,15 12.5,17.5 10,20 10,25 10,30 20,25 20,10 10,5 10,10" style="fill:white;stroke:black;stroke-width:0.5px;"/>
                <text x="12" y="20" font-size="3">Add</text>
            </g>
            <g id="alu2" transform="scale(1.2)">
                <polyline points="10,5 10,10 10,15 12.5,17.5 10,20 10,25 10,30 20,25 20,10 10,5 10,10" style="fill:white;stroke:black;stroke-width:0.5px;"/>
                <text x="13" y="18.5" font-size="3">ALU</text>
            </g>
             <marker id="arrow" markerWidth="10" markerHeight="10" refX="0" refY="1.5" orient="auto" markerUnits="strokeWidth">
            <path d="M0,0 L0,3 L4.5,2 z" fill="black" />
            </marker>
    </defs>
    <!--     instruction path  -->
    <rect x="9" y="32" width="7" height="20" style="fill:none;stroke:black;stroke-width:0.5px;"/>
    <text x="10" y="40" font-size="4">PC</text>
    <polyline points="16,42 23,42" style="fill:white;stroke:black;stroke-width:0.5px;" marker-end="url(#arrow)"/>
    <polyline points="20,42 20,23 22,23" style="fill:white;stroke:black;stroke-width:0.5px;" marker-end="url(#arrow)"/>
    <circle cx="20" cy="42" r="0.5" style="fill:none;stroke:black;stroke-width:0.5px;"/>
    <polyline points="20,28 50,28 50,10 67,10" style="fill:none;stroke:black;stroke-width:0.5px;" marker-end="url(#arrow)"/>
    <polyline points="30,16 40,16 40,3 6,3 6,42 7,42" style="fill:none;stroke:black;stroke-width:0.5px;" marker-end="url(#arrow)"/>
    <polyline points=" 78,16 85,16 85,3 42,3" style="fill:none;stroke:black;stroke-width:0.5px;" marker-end="url(#arrow)"/>
    <polyline points=" 18,10 22,10" style="fill:none;stroke:black;stroke-width:0.5px;" marker-end="url(#arrow)"/>
    <text x="15" y="11" font-size="4">4</text>
    <circle cx="20" cy="28" r="0.5" style="fill:none;stroke:black;stroke-width:0.5px;"/>
    <rect x="25" y="30" width="35" height="35" style="fill:none;stroke:black;stroke-width:0.5px;"/>
    <text x="26" y="45" font-size="3">Address</text>
    <text x="40" y="45" font-size="3">Instruction</text>
    <text x="28" y="55" font-size="3">Instruction</text>
    <text x="28" y="58" font-size="3">memory</text>
    <use x="15" y="0" href="#alu"/>
    <use x="60" y="0" href="#alu"/>
    <polyline points="60,42 68,42" style="fill:white;stroke:black;stroke-width:0.5px;" marker-end="url(#arrow)"/>
    <polyline points="62,42 62,23 66.7,23" style="fill:white;stroke:black;stroke-width:0.5px;" marker-end="url(#arrow)"/>
    <circle cx="62" cy="42" r="0.5" style="fill:none;stroke:black;stroke-width:0.5px;"/>
    <!--     data path -->
    <rect x="70" y="30" width="35" height="35" style="fill:none;stroke:black;stroke-width:0.5px;"/>
    <text x="72" y="35" font-size="3">Data</text>
    <text x="90" y="45" font-size="3">Registers</text>
    <text x="72" y="43" font-size="3">Register # </text>
    <text x="72" y="50" font-size="3">Register # </text>
    <text x="72" y="57" font-size="3">Register # </text>
    <polyline points="105,38 115,38" style="fill:white;stroke:black;stroke-width:0.5px;" marker-end="url(#arrow)"/>
    <polyline points="105,55 115,55" style="fill:white;stroke:black;stroke-width:0.5px;" marker-end="url(#arrow)"/>
    <polyline points="108,55 108,63 138,63" style="fill:white;stroke:black;stroke-width:0.5px;" marker-end="url(#arrow)"/>
    <use x="105" y="26" href="#alu2"/>
    <polyline points="129,47 138,47" style="fill:white;stroke:black;stroke-width:0.5px;" marker-end="url(#arrow)"/>
    <circle cx="108" cy="55" r="0.5" style="fill:none;stroke:black;stroke-width:0.5px;"/>
    <polyline points="134,47 134,30" style="fill:white;stroke:black;stroke-width:0.5px;" marker-end="url(#arrow)"/>
    <circle cx="134" cy="47" r="0.5" style="fill:none;stroke:black;stroke-width:0.5px;"/>
    <rect x="140" y="34" width="35" height="35" style="fill:none;stroke:black;stroke-width:0.5px;"/>
    <text x="142" y="48" font-size="3">Address</text>
    <text x="142" y="64" font-size="3">Data</text>
    <text x="160" y="55" font-size="3">Data</text>
    <text x="160" y="58" font-size="3">memory</text>
    <polyline points="175,50 179,50 179,28 66,28 66,34 68,34" style="fill:none;stroke:black;stroke-width:0.5px;" marker-end="url(#arrow)"/>
    <polyline points="62,40 62,70 112,70 112,58" style="fill:none;stroke:black;stroke-width:0.5px;" marker-end="url(#arrow)"/>
    <polyline points="62,49 67,49" style="fill:white;stroke:black;stroke-width:0.5px;" marker-end="url(#arrow)"/>
    <polyline points="62,56 67,56" style="fill:white;stroke:black;stroke-width:0.5px;" marker-end="url(#arrow)"/>
    <circle cx="62" cy="49" r="0.5" style="fill:none;stroke:black;stroke-width:0.5px;"/>
    <circle cx="62" cy="56" r="0.5" style="fill:none;stroke:black;stroke-width:0.5px;"/>
</svg>

