<?xml version="1.0" encoding="UTF-8" standalone="no"?>
<svg
   xmlns:dc="http://purl.org/dc/elements/1.1/"
   xmlns:cc="http://creativecommons.org/ns#"
   xmlns:rdf="http://www.w3.org/1999/02/22-rdf-syntax-ns#"
   xmlns:svg="http://www.w3.org/2000/svg"
   xmlns="http://www.w3.org/2000/svg"
   xmlns:sodipodi="http://sodipodi.sourceforge.net/DTD/sodipodi-0.dtd"
   xmlns:inkscape="http://www.inkscape.org/namespaces/inkscape"
   width="100.00"
   height="100.00"
   viewBox="0.0 0.0 350.0 100.0"
   version="1.1"
   viewport="0 0 350px 100px"
   id="svg10"
   sodipodi:docname="de_morgan_nor_equivalence.svg"
   inkscape:version="0.92.4 (5da689c313, 2019-01-14)">
  <metadata
     id="metadata16">
    <rdf:RDF>
      <cc:Work
         rdf:about="">
        <dc:format>image/svg+xml</dc:format>
        <dc:type
           rdf:resource="http://purl.org/dc/dcmitype/StillImage" />
        <dc:title></dc:title>
      </cc:Work>
    </rdf:RDF>
  </metadata>
  <defs
     id="defs14" />
  <sodipodi:namedview
     pagecolor="#ffffff"
     bordercolor="#666666"
     borderopacity="1"
     objecttolerance="10"
     gridtolerance="10"
     guidetolerance="10"
     inkscape:pageopacity="0"
     inkscape:pageshadow="2"
     inkscape:window-width="2560"
     inkscape:window-height="1381"
     id="namedview12"
     showgrid="false"
     inkscape:zoom="18.88"
     inkscape:cx="64.836072"
     inkscape:cy="46.542544"
     inkscape:window-x="0"
     inkscape:window-y="0"
     inkscape:window-maximized="1"
     inkscape:current-layer="svg10" />
  <!--inputs-->
  <line
     x1="10"
     y1="25"
     x2="40"
     y2="25"
     style="fill:#ffffff;stroke:#000000"
     stroke-width="2px"
     id="line5" />
  <line
     x1="10"
     y1="75"
     x2="40"
     y2="75"
     style="fill:#ffffff;stroke:#000000"
     stroke-width="2px"
     id="line7" />
  <!--output-->
  <line
     x1="90"
     y1="50"
     x2="130"
     y2="50"
     style="fill:#ffffff;stroke:#000000"
     stroke-width="2px"
     id="line9" />
  <!--symbol-->
  <line
     x1="30"
     y1="10"
     x2="70"
     y2="10"
     style="fill:#ffffff;stroke:#000000"
     stroke-width="2px"
     id="line11" />
  <line
     x1="30"
     y1="90"
     x2="70"
     y2="90"
     style="fill:#ffffff;stroke:#000000"
     stroke-width="2px"
     id="line13" />
  <circle
     cx="113"
     cy="50"
     r="3"
     style="fill:#ffffff;stroke:#000000"
     id="circle10" />
  <path
     id="ellipse8"
     style="fill:#ffffff;stroke:#000000;stroke-width:2px"
     sodipodi:type="arc"
     sodipodi:cx="70"
     sodipodi:cy="50"
     sodipodi:rx="40"
     sodipodi:ry="40"
     sodipodi:start="4.7"
     sodipodi:end="1.5656212"
     sodipodi:open="true"
     d="m 69.504453,10.00307 a 40,40 0 0 1 34.935157,19.652064 40,40 0 0 1 0.352,40.081724 40,40 0 0 1 -34.584606,20.262606" />
  <path
     id="ellipse9"
     style="fill:none;stroke:#000000;stroke-width:2px"
     sodipodi:type="arc"
     sodipodi:cx="30"
     sodipodi:cy="50"
     sodipodi:rx="12.351695"
     sodipodi:ry="40"
     sodipodi:start="4.7"
     sodipodi:end="1.5656212"
     sodipodi:open="true"
     d="M 29.846979,10.00307 A 12.351695,40 0 0 1 40.634688,29.655134 12.351695,40 0 0 1 40.743385,69.736858 12.351695,40 0 0 1 30.063921,89.999464" />
  <text
     x="150"
     y="60"
     font-size="32"
     fill="black"
     id="text14">≡</text>
  <!--inputs-->
  <line
     x1="210"
     y1="25"
     x2="240"
     y2="25"
     style="fill:#ffffff;stroke:#000000"
     stroke-width="2px"
     id="line16" />
  <circle
     cx="227"
     cy="25"
     r="3"
     style="fill:#ffffff;stroke:#000000"
     id="circle18" />
  <line
     x1="210"
     y1="75"
     x2="240"
     y2="75"
     style="fill:#ffffff;stroke:#000000"
     stroke-width="2px"
     id="line20" />
   <circle
     cx="227"
     cy="75"
     r="3"
     style="fill:#ffffff;stroke:#000000"
     id="circle22" />
  <!--output-->
  <line
     x1="290"
     y1="50"
     x2="330"
     y2="50"
     style="fill:#ffffff;stroke:#000000"
     stroke-width="2px"
     id="line24" />
  <!--symbol-->
 <polyline
     points="270,10 230,10 230,90, 270,90"
     style="fill:#ffffff;stroke:#000000"
     stroke-width="2px"
     id="polyline5" />
  <path
     id="path30"
     style="fill:#ffffff;stroke:#000000;stroke-width:2px"
     sodipodi:type="arc"
     sodipodi:cx="270"
     sodipodi:cy="50"
     sodipodi:rx="40"
     sodipodi:ry="40"
     sodipodi:start="4.7"
     sodipodi:end="1.5656212"
     sodipodi:open="true"
     d="m 269.504453,10.00307 a 40,40 0 0 1 34.935157,19.652064 40,40 0 0 1 0.352,40.081724 40,40 0 0 1 -34.584606,20.262606" />

</svg>
