<svg width="100.00" height="110.00" 
     viewBox="0.0 0.0 100.0 110.0" 
     viewPort="0 0 100px 110px" 
     version="1.1"
     xmlns:xlink="http://www.w3.org/1999/xlink"
     xmlns="http://www.w3.org/2000/svg">
    
    <g id="pmos">
        <polyline points="50,38 40,38  40,53 50,53" style="stroke:black;stroke-width:1;fill:none;stroke-linecap:round"/>
        <circle cx="37" cy="45" r="1" style="stroke:black;stroke-width:1;fill:none;"/>
        <line x1="38" y1="38" x2="38" y2="53" style="stroke:black;stroke-width:1;fill:none;"/>
        <line x1="25" y1="45" x2="36" y2="45" style="stroke:black;stroke-width:1;fill:none;"/>
    </g>
    
    <g id="nmos">
        <polyline points="50,70 40,70  40,85 50,85" style="stroke:black;stroke-width:1;fill:none;stroke-linecap:round"/>
        <line x1="38" y1="70" x2="38" y2="85" style="stroke:black;stroke-width:1;fill:none;"/>
        <line x1="25" y1="77" x2="38" y2="77" style="stroke:black;stroke-width:1;fill:none;"/>
    </g>
    
    <polyline points="46,24 50,19 54,24" style="stroke:black;stroke-width:1;fill:white;"/>
    <line x1="50" y1="20" x2="50" y2="38" style="stroke:black;stroke-width:1;fill:white;"/>
    <line x1="15" y1="62" x2="25" y2="62" style="stroke:black;stroke-width:1;fill:white;"/>
    <circle cx="25" cy="62" r="1" style="stroke:black;stroke-width:1;fill:none;"/>
    <polyline points="36,45 25,45 25,77 36,77 " style="stroke:black;stroke-width:1;fill:none;"/>
    
    <use x="0" y="-32" xlink:href="#mosfet" style="stroke:blue;stroke-width:1"/>
    <!--<rect x="47" y="35" width="6" height="18" style="stroke:black;stroke-width:1;fill:white;"/>-->
    <circle cx="50" cy="62" r="1" style="stroke:black;stroke-width:1;fill:black;"/>
    <line x1="50" y1="62" x2="65" y2="62" style="stroke:black;stroke-width:1;fill:white;"/>
    <circle cx="65" cy="62" r="1" style="stroke:black;stroke-width:1;fill:black;"/>
    <text x="67" y="64" font-size="6">Q</text>
    <line x1="50" y1="53" x2="50" y2="70" style="stroke:black;stroke-width:1;fill:white;"/>
    <line x1="50" y1="85" x2="50" y2="100" style="stroke:black;stroke-width:1;fill:white;"/>
    
    
    <circle cx="15" cy="62" r="1" style="stroke;stroke-width:1;fill:black;"/>
    <text x="10" y="64" font-size="6">A</text>
    <!--ground-->
    <polygon points="46,100 54,100 50,105" style="stroke:black;stroke-width:1;fill:white;"/>
</svg>
