<svg width="100.00" height="110.00" 
     viewBox="0.0 0.0 100.0 110.0" 
     viewPort="0 0 100px 110px" 
     version="1.1"
     xmlns:xlink="http://www.w3.org/1999/xlink"
     xmlns="http://www.w3.org/2000/svg">
    
    <!--p-well-->
    <line x1="44" y1="30" x2="56" y2="30" style="stroke:green;"/>    
    <!--n-well-->
    <line x1="44" y1="70" x2="56" y2="70" style="stroke:gold;"/>
   
    <line x1="10" y1="10" x2="90" y2="10" style="stroke:blue;"/>
    <line x1="45" y1="10" x2="45" y2="31" style="stroke:blue;"/>
    
    
    <line x1="45" y1="69" x2="45" y2="95" style="stroke:blue;"/>
    <line x1="10" y1="95" x2="90" y2="95" style="stroke:blue;"/>
    
    <!--polysilicon-->
    <line x1="50" y1="25" x2="50" y2="75" style="stroke:red;"/>
    <line x1="10" y1="50" x2="51" y2="50" style="stroke:blue;"/>
    <circle cx="50" cy="50" r="0.25" style="stroke:black;"/>
    
    
    <line x1="55" y1="29" x2="55" y2="71" style="stroke:blue;"/>
    <line x1="55" y1="50" x2="75" y2="50" style="stroke:blue;"/>
    
    <!--contact points -->
    <circle cx="45" cy="30" r="0.25" style="stroke:black;"/>
    <circle cx="55" cy="30" r="0.25" style="stroke:black;"/>
    <circle cx="45" cy="70" r="0.25" style="stroke:black;"/>
    <circle cx="55" cy="70" r="0.25" style="stroke:black;"/>
    
    <!--legend-->
    <text x="81" y="19" font-size="4">Metal</text>
    <line x1="76" y1="18" x2="80" y2="18" style="stroke:blue;"/>
    <text x="81" y="23" font-size="4">Polysilicon</text>
    <line x1="76" y1="22" x2="80" y2="22" style="stroke:red;"/>
    <text x="81" y="27" font-size="4">P Diff.</text>
    <line x1="76" y1="26" x2="80" y2="26" style="stroke:green;"/>
    <text x="81" y="31" font-size="4">N Diff.</text>
    <line x1="76" y1="30" x2="80" y2="30" style="stroke:gold;"/>
    <text x="81" y="35" font-size="4">Contact</text>
    <circle cx="78" cy="34" r="0.25" style="stroke:black;"/>
    
</svg>
