<svg width="100.00" height="100.00" 
     viewBox="0.0 0.0 100.0 100.0" 
     viewPort="0 0 100px 100px" 
     version="1.1"
     xmlns:xlink="http://www.w3.org/1999/xlink"
     xmlns="http://www.w3.org/2000/svg">
    <line x1="20" y1="5" x2="20" y2="15" style="fill:none;stroke:grey;stroke-width:0.5px;"/>
    <line x1="60" y1="5" x2="60" y2="15" style="fill:none;stroke:grey;stroke-width:0.5px;"/>
    <text x="30" y="10" font-size="4">M1 cycle</text> 
    <text x="2" y="20" font-size="4">Clk</text> 
    <polyline points="15,20 20,20 20,15 25,15 25,20 30,20 30,15 35,15 35,20 40,20 40,15 45,15 45,20 50,20 50,15 55,15 55,20 60,20 60,15 65,15 65,20 70,20" 
              style="fill:none;stroke:black;stroke-width:0.5px;"/>
    <text x="2" y="29" font-size="4">A0...A7</text> 
    <polyline points="15,25 20,25 25,30 40,30 45,25 60,25 65,30 70,30" 
              style="fill:none;stroke:red;stroke-width:0.5px;"/>
    <text x="30" y="29" font-size="4">PC</text> 
    <text x="50" y="29" font-size="4">R</text> 
    <polyline points="15,30 20,30 25,25 40,25 45,30 60,30 65,25 70,25" 
              style="fill:none;stroke:red;stroke-width:0.5px;"/>
    <text x="2" y="39" font-size="4" text-decoration="overline">MREQ</text>
    <polyline points="15,35  25,35 25,40  40,40 40,35 45,35 45,40 55,40 55,35 65,35" 
              style="fill:none;stroke:black;stroke-width:0.5px;"/>
    <text x="2" y="49" font-size="4" text-decoration="overline">RD</text>
    <polyline points="15,45  25,45 25,50  40,50 40,45 65,45" 
              style="fill:none;stroke:black;stroke-width:0.5px;"/>
    <text x="2" y="59" font-size="4" text-decoration="overline">M1</text>
    <polyline points="15,55  20,55 20,60  40,60 40,55 65,55" 
              style="fill:none;stroke:black;stroke-width:0.5px;"/>
    <text x="2" y="69" font-size="4">D0...D7</text>
    <polyline points="15,67.5  35,67.5 37,65 42,65 44,67.5 65,67.5" 
              style="fill:none;stroke:blue;stroke-width:0.5px;"/>
    <polyline points="35,67.5 37,70 42,70 44,67.5" 
              style="fill:none;stroke:blue;stroke-width:0.5px;"/>
    <text x="37" y="69" font-size="4">IN</text>
    <text x="2" y="79" font-size="4" text-decoration="overline">RFSH</text>
    <polyline points="15,75  40,75 40,80 62,80 62,75 65,75"  
              style="fill:none;stroke:black;stroke-width:0.5px;"/>
    <text x="2" y="89" font-size="4" text-decoration="overline">WAIT</text>
    <polyline points="15,85 65,85"  
              style="fill:none;stroke:grey;stroke-width:0.5px;"/>
</svg>
