<svg width="100.00" height="100.00" 
     viewBox="0.0 0.0 100.0 100.0" 
     viewPort="0 0 100px 100px" 
     version="1.1"
     xmlns:xlink="http://www.w3.org/1999/xlink"
     xmlns="http://www.w3.org/2000/svg">
    <line x1="20" y1="5" x2="20" y2="15" style="fill:none;stroke:grey;stroke-width:0.5px;"/>
    <line x1="50" y1="5" x2="50" y2="15" style="fill:none;stroke:grey;stroke-width:0.5px;"/>
    <line x1="80" y1="5" x2="80" y2="15" style="fill:none;stroke:grey;stroke-width:0.5px;"/>
    <text x="25" y="10" font-size="4">M2 cycle</text> 
    <text x="55" y="10" font-size="4">M3 cycle</text> 
    <text x="2" y="20" font-size="4">Clk</text> 
    <polyline points="15,20 20,20 20,15 25,15 25,20 30,20 30,15 35,15 35,20 40,20 40,15 45,15 45,20 50,20 50,15 55,15 55,20 
              60,20 60,15 65,15 65,20 70,20 70,15 75,15 75,20 80,20 80,15 85,15" 
              style="fill:none;stroke:black;stroke-width:0.5px;"/>
    <text x="2" y="29" font-size="4">A0...A7</text> 
    <polyline points="15,25 20,25 22.5,30 50,30 52.5,25 80,25 82.5,30 90,30" 
              style="fill:none;stroke:red;stroke-width:0.5px;"/>
    <text x="30" y="29" font-size="4">MAD</text> 
    <text x="60" y="29" font-size="4">MAD</text> 
    <polyline points="15,30 20,30 22.5,25 50,25 52.5,30 80,30 82.5,25 90,25" 
              style="fill:none;stroke:red;stroke-width:0.5px;"/>
    <text x="2" y="39" font-size="4" text-decoration="overline">MREQ</text>
    <polyline points="15,35 25,35 25,40  47.5,40 47.5,35 57.5,35 57.5,40 77.5,40 77.5,35 90,35" 
              style="fill:none;stroke:black;stroke-width:0.5px;"/>
    <text x="2" y="49" font-size="4" text-decoration="overline">RD</text>
    <polyline points="15,45 25,45 25,50  47.5,50 47.5,45 90,45" 
              style="fill:none;stroke:black;stroke-width:0.5px;"/>
    <text x="2" y="59" font-size="4" text-decoration="overline">WR</text>
    <polyline points="15,55  65,55 65,60 75,60 75,55 90,55" 
              style="fill:none;stroke:black;stroke-width:0.5px;"/>
    <text x="2" y="69" font-size="4">D0...D7</text>
    <polyline points="15,67.5 40,67.5 42,65 47,65 49,67.5 57.5,67.5 59,65 80,65 82.5,67.5 90,67.5" 
              style="fill:none;stroke:blue;stroke-width:0.5px;"/>
    <polyline points="40,67.5 42,70 47,70 49,67.5 57,67.5 59,70 80,70 82.5,67.5" 
              style="fill:none;stroke:blue;stroke-width:0.5px;"/>
    <text x="42" y="69" font-size="4">IN</text>
    <text x="65" y="69" font-size="4">OUT</text>
    <text x="2" y="79" font-size="4" text-decoration="overline">WAIT</text>
    <polyline points="15,75 90,75"  
              style="fill:none;stroke:grey;stroke-width:0.5px;"/>
</svg>
