<svg width="150.00" height="140.00" 
     viewBox="0.0 0.0 150.0 140.0" 
     viewPort="0 0 150px 140px" 
     version="1.1"
     xmlns:xlink="http://www.w3.org/1999/xlink"
     xmlns="http://www.w3.org/2000/svg">
    <defs>
        <linearGradient id="grad1" x1="50%" y1="100%" x2="50%" y2="0%">
        <stop offset="0%" style="stop-color:steelblue;stop-opacity:1" />
        <stop offset="100%" style="stop-color:white;stop-opacity:1" />
        </linearGradient>
        <marker id="arrow" markerWidth="10" markerHeight="10" refX="0" refY="1" orient="auto" markerUnits="strokeWidth">
        <path d="M0,0 L0,2 L3,1 z" fill="steelblue" />
        </marker>
    </defs>
    <polyline points="10,120 80,10 140,120 10,120 80,10" style="fill:url(#grad1);stroke:black;stroke-width:1px;"/>
    <text x="72" y="36" font-size="5">register</text>
    <line x1="62" y1="39" x2="96" y2="39" style="fill:none;stroke:black;stroke-width:0.5px;"/>
    <text x="70" y="46" font-size="5">L1 cache</text>
    <line x1="54" y1="51" x2="102" y2="51" style="fill:none;stroke:black;stroke-width:0.5px;"/>
    <text x="70" y="58" font-size="5">L2 cache</text>
    <line x1="46" y1="63" x2="109" y2="63" style="fill:none;stroke:black;stroke-width:0.5px;"/>
    <text x="70" y="70" font-size="5">L3 cache</text>
    <line x1="39" y1="75" x2="116" y2="75" style="fill:none;stroke:black;stroke-width:0.5px;"/>
    <text x="70" y="85" font-size="5">RAM</text>
    <line x1="29" y1="90" x2="124" y2="90" style="fill:none;stroke:black;stroke-width:0.5px;"/>
    <text x="60" y="100" font-size="5">Disk (SSD)</text>
    <line x1="20" y1="105" x2="132" y2="105" style="fill:none;stroke:black;stroke-width:0.5px;"/>
    <text x="60" y="115" font-size="5">Disk (HDD) / Tape</text>
    <line x1="145" y1="120" x2="145" y2="20" style="fill:url(#grad1);stroke:steelblue;stroke-width:2px;" marker-end="url(#arrow)"/>
    <text x="120" y="50" font-size="4" style="fill:steelblue">Performance</text>
</svg>
