<svg width="100.00" height="150.00" 
     viewBox="0.0 0.0 100.0 150.0" 
     viewPort="0 0 100px 150px" 
     version="1.1"
     xmlns="http://www.w3.org/2000/svg">
    <!--power-->
    <polyline points="71,20 75,14 79,20" style="stroke:black;stroke-width:1;fill:white;"/>
    <!--n-mos-->
    <polyline points="50,60 50,70 40,70 40,85 50,85 50,100 40,100 40,115 50,115 50,130"
              style="stroke:black;stroke-width:1;fill:none;"/>
    <line x1="38" y1="70" x2="38" y2="85" style="stroke:black;stroke-width:1;fill:none;"/>
    <line x1="15" y1="77" x2="38" y2="77" style="stroke:black;stroke-width:1;fill:none;"/>
    <circle cx="15" cy="77" r="1" style="stroke:black;stroke-width:1;fill:black;"/>
    <text x="9" y="79" font-size="6">A</text>
    <line x1="38" y1="100" x2="38" y2="115" style="stroke:black;stroke-width:1;fill:none;"/>
    <line x1="15" y1="107" x2="38" y2="107" style="stroke:black;stroke-width:1;fill:none;"/>
    <circle cx="15" cy="107" r="1" style="stroke:black;stroke-width:1;fill:black;"/>
    <text x="9" y="109" font-size="6">B</text>
    <!--ground-->
    <polygon points="46,130 54,130 50,135" style="stroke:black;stroke-width:1;fill:white;"/>
    
    <!--output line-->
    <circle cx="50" cy="62" r="1" style="stroke:black;stroke-width:1;fill:black;"/>
    <line x1="50" y1="62" x2="82" y2="62" style="stroke:black;stroke-width:1;fill:white;"/>
    <circle cx="75" cy="62" r="1" style="stroke:black;stroke-width:1;fill:black;"/>
    <circle cx="82" cy="62" r="1" style="stroke:black;stroke-width:1;fill:black;"/>
    <text x="90" y="62" font-size="6">Q</text>
    
    <!--p-mos-->
    <polyline points="75,25 50,25 50,35 40,35 40,50 50,50 50,60"
              style="stroke:black;stroke-width:1;fill:none;"/>
    <circle cx="75" cy="25" r="1" style="stroke:black;stroke-width:1;fill:none;"/>
    <line x1="38" y1="35" x2="38" y2="50" style="stroke:black;stroke-width:1;fill:none;"/>
    <circle cx="37" cy="42" r="1" style="stroke:black;stroke-width:1;fill:none;"/>
    <polyline points="20,77  20,42 36,42" style="stroke:black;stroke-width:1;fill:none;"/>
    <circle cx="20" cy="77" r="1" style="stroke:black;stroke-width:1;fill:black;"/>
    
    <polyline points="75,15 75,35 65,35 65,50 75,50 75,62"
              style="stroke:black;stroke-width:1;fill:none;"/>
    <line x1="63" y1="35" x2="63" y2="50" style="stroke:black;stroke-width:1;fill:none;"/>
    <circle cx="62" cy="42" r="1" style="stroke:black;stroke-width:1;fill:none;"/>
    <polyline points="61,42 54,42 54,56 30,56 30,108" style="stroke:black;stroke-width:1;fill:none;"/>
    <circle cx="30" cy="107" r="1" style="stroke:black;stroke-width:1;fill:black;"/>
   
</svg>
