<svg width="150.00" height="110.00" 
     viewBox="0.0 0.0 150.0 110.0" 
     viewPort="0 0 150px 110px" 
     version="1.1"
     xmlns="http://www.w3.org/2000/svg">

    <!--power-->
    <polyline points="46,12 50,7 54,12" style="stroke:black;stroke-width:1;fill:white;"/>
    <!--output line-->
    <circle cx="50" cy="62" r="1" style="stroke:black;stroke-width:1;fill:black;"/>
    <line x1="50" y1="62" x2="85" y2="62" style="stroke:black;stroke-width:1;fill:white;"/>
    <circle cx="85" cy="62" r="1" style="stroke:black;stroke-width:1;fill:black;"/>
    <text x="87" y="64" font-size="6">Q</text>
    <!--nmos-->
    <polyline points="50,62 50,70 40,70 40,85 50,85 50,100" style="stroke:black;stroke-width:1;fill:none;"/>
    <line x1="38" y1="70" x2="38" y2="85" style="stroke:black;stroke-width:1;fill:none;"/>
    <circle cx="80" cy="62" r="1" style="stroke:black;stroke-width:1;fill:black;"/>
    <polyline points=" 80,62  80,70 70,70  70,85 80,85 80,100" style="stroke:black;stroke-width:1;fill:none;"/>
    <line x1="68" y1="70" x2="68" y2="85" style="stroke:black;stroke-width:1;fill:none;"/>
    <line x1="58" y1="77" x2="68" y2="77" style="stroke:black;stroke-width:1;fill:none;"/>
    
    <!--pmos (2 pmos in series)-->
    <polyline points="50,8 50,15 40,15 40,30 50,30 50,40 40,40 40,55 50,55 50,62" style="stroke:black;stroke-width:1;fill:none;"/>
    <line x1="38" y1="15" x2="38" y2="30" style="stroke:black;stroke-width:1;fill:none;"/>
    <circle cx="37" cy="22" r="1" style="stroke:black;stroke-width:1;fill:none;"/>
    <line x1="38" y1="40" x2="38" y2="55" style="stroke:black;stroke-width:1;fill:none;"/>
    <circle cx="37" cy="47" r="1" style="stroke:black;stroke-width:1;fill:none;"/>
    <polyline points="38,77 25,77 25,47 36,47, 15,47" style="stroke:black;stroke-width:1;fill:none;"/>
    <circle cx="25" cy="47" r="1" style="stroke:black;stroke-width:1;fill:black;"/>
    <circle cx="15" cy="47" r="1" style="stroke:black;stroke-width:1;fill:black;"/>
    <text x="9" y="49" font-size="6">A</text>
    <circle cx="80" cy="62" r="1" style="stroke:black;stroke-width:1;fill:black;"/>
    <polyline points=" 80,62  80,70 70,70  70,85 80,85 80,100" style="stroke:black;stroke-width:1;fill:none;"/>
    <line x1="68" y1="70" x2="68" y2="85" style="stroke:black;stroke-width:1;fill:none;"/>
    <!-- connector B-->
    <polyline points="36,22 25,22 25,35" style="stroke:black;stroke-width:1;fill:none;"/>
    <circle cx="25" cy="35" r="1" style="stroke:black;stroke-width:1;fill:none;"/>
    <polyline points="15,35 58,35 58,77  68,77" style="stroke:black;stroke-width:1;fill:none;"/>
    <circle cx="15" cy="35" r="1" style="stroke:black;stroke-width:1;fill:black;"/>
    <text x="9" y="37" font-size="6">B</text>
    
    
    <!--ground-->
    <polygon points="46,100 54,100 50,105" style="stroke:black;stroke-width:1;fill:white;"/>
    <polygon points="76,100 84,100 80,105" style="stroke:black;stroke-width:1;fill:white;"/>
</svg>
