<svg width="110px" 
     height="50px" 
     viewBox="0.0 0.0 110.00 50.00" 
     viewPort = "0 0 110 50" 
     xmlns="http://www.w3.org/2000/svg" version="1.1">
    <rect x="3" y="0" width="48" height="45" style="fill:none;stroke:black;stroke-width:0.5px;"/>
    <text x="5" y="5" font-size="4"  style="fill:blue;">One's complement:</text>
    <text x="5" y="10" font-size="5"  style="fill:blue;">4+(-3)=1</text>
    
    <text x="10" y="20" font-size="5">00000100</text>
    <text x="10" y="25" font-size="5">11111100</text>
    <text x="5" y="25" font-size="5">+</text>
    <text x="10" y="29" font-size="4" style="fill:red;">1</text>
    <text x="12.5" y="29" font-size="4" style="fill:red;">1</text>
    <text x="15" y="29" font-size="4" style="fill:red;">1</text>
    <text x="17.5" y="29" font-size="4" style="fill:red;">1</text>
    <text x="20" y="29" font-size="4" style="fill:red;">1</text>
    <line x1="10" y1="30" x2="30" y2="30" style="fill:none;stroke:black;stroke-width:0.5px;"/>
    <text x="7.8" y="35" font-size="5" style="fill:red;">1</text>
    <text x="10" y="35" font-size="5">00000000 = -0  ≠ -1</text>
    <line x1="10" y1="37" x2="30" y2="37" style="fill:none;stroke:black;"/>
    <text x="10" y="42" font-size="4" style="fill:red;">Wrong!</text>
   
    <rect x="55" y="0" width="50" height="45" style="fill:none;stroke:black;stroke-width:0.5px;"/>
    <text x="57" y="5" font-size="4"  style="fill:blue;">Two's complement</text>
    <text x="57" y="10" font-size="5"  style="fill:blue;">4+(-3)=1</text>
    
    <text x="62" y="20" font-size="5">00000100</text>
    <text x="62" y="25" font-size="5">11111101</text>
    <text x="57" y="25" font-size="5">+</text>
    <text x="62" y="29" font-size="4" style="fill:red;">1</text>
    <text x="64.5" y="29" font-size="4" style="fill:red;">1</text>
    <text x="67.2" y="29" font-size="4" style="fill:red;">1</text>
    <text x="70" y="29" font-size="4" style="fill:red;">1</text>
    <text x="72.2" y="29" font-size="4" style="fill:red;">1</text>
    <line x1="62" y1="30" x2="82" y2="30" style="fill:none;stroke:black;stroke-width:0.5px;"/>
    <text x="59.3" y="35" font-size="5" style="fill:red;">1</text>
    <text x="61.5" y="35" font-size="5">00000001 = -1</text>
    <line x1="62" y1="37" x2="82" y2="37" style="fill:none;stroke:black;"/>
    <text x="62" y="42" font-size="4" style="fill:green;">Correct!</text>
    
</svg>

