<svg width="80.00" height="100.00" 
     viewBox="0.0 0.0 80.0 100.0" 
     viewPort="0 0 80px 100px" 
     version="1.1"
     xmlns:xlink="http://www.w3.org/1999/xlink"
     xmlns="http://www.w3.org/2000/svg">
    <defs>
        <g transform="scale(0.8)" id="inverter">
            <line x1= "5" y1="15" x2="10" y2="15" style="fill:none;stroke:black" stroke-width="0.4px"/>
            <polyline points= "10,20 10,10 20,15 10,20 10,10" style="fill:none;stroke:black;stroke-width:0.5px;"/>
            <circle cx="21" cy="15" r="0.7" style="fill:none;stroke:black;stroke-width:0.5px;"/>
            <line x1= "21.5" y1="15" x2="28" y2="15" style="fill:none;stroke:black" stroke-width="0.4px"/>
        </g>
    <g transform="scale(0.20)" id="and">
    <!--inputs-->
    <line x1= "10" y1="25" x2="30" y2="25" style="fill:#ffffff;stroke:#000000" stroke-width="2px"/>
    <line x1= "10" y1="75" x2="30" y2="75" style="fill:#ffffff;stroke:#000000" stroke-width="2px"/>
    <!--output-->
    <line x1= "90" y1="50" x2="130" y2="50" style="fill:#ffffff;stroke:#000000" stroke-width="2px"/>
    <polyline
        points="70,10 30,10 30,90, 70,90"
        style="fill:#ffffff;stroke:#000000"
        stroke-width="2px"
        id="polyline5" />
    <path
        id="ellipse8"
        style="fill:#ffffff;stroke:#000000;stroke-width:2px"
        type="arc"
        cx="70"
        cy="50"
        rx="40"
        ry="40"
        start="4.7"
        end="1.5656212"
        open="true"
        d="m 69.504453,10.00307 a 40,40 0 0 1 34.935157,19.652064 40,40 0 0 1 0.352,40.081724 40,40 0 0 1 -34.584606,20.262606" />
    </g>
    <g transform="scale(0.20)" id="xor">
        <line
            x1="30"
            y1="10"
            x2="70"
            y2="10"
            style="fill:#ffffff;stroke:#000000"
            stroke-width="2px"
            id="line11" />
        <line
            x1="30"
            y1="90"
            x2="70"
            y2="90"
            style="fill:#ffffff;stroke:#000000"
            stroke-width="2px"
            id="line13" />
        <path
            id="ellipse8"
            style="fill:none;stroke:#000000;stroke-width:2px"
            type="arc"
            cx="70"
            cy="50"
            rx="40"
            ry="40"
            start="4.7"
            end="1.5656212"
            open="true"
            d="m 69.504453,10.00307 a 40,40 0 0 1 34.935157,19.652064 40,40 0 0 1 0.352,40.081724 40,40 0 0 1 -34.584606,20.262606" />
        <path
            id="ellipse9"
            style="fill:none;stroke:#000000;stroke-width:2px"
            type="arc"
            cx="30"
            cy="50"
            rx="12.351695"
            ry="40"
            start="4.7"
            end="1.5656212"
            open="true"
            d="M 29.846979,10.00307 A 12.351695,40 0 0 1 40.634688,29.655134 12.351695,40 0 0 1 40.743385,69.736858 12.351695,40 0 0 1 30.063921,89.999464" />
        <g transform="translate(-5.0 0.0)">
        <path
            id="ellipse10"
            style="fill:none;stroke:#000000;stroke-width:2px"
            type="arc"
            cx="15"
            cy="50"
            rx="12.351695"
            ry="40"
            start="4.7"
            end="1.5656212"
            open="true"
            d="M 29.846979,10.00307 A 12.351695,40 0 0 1 40.634688,29.655134 12.351695,40 0 0 1 40.743385,69.736858 12.351695,40 0 0 1 30.063921,89.999464" />
        </g>
    </g>
    </defs>
<use x="25" y="8" href="#inverter"/>
<use x="45" y="5" href="#and"/>
<use x="30" y="30" href="#xor"/>
<use x="48" y="28" href="#inverter"/>
<use x="25" y="58" href="#inverter"/>
<use x="45" y="55" href="#and"/>
<!-- A -->
<polyline points="50,10 18,10 18,70 30,70" style="fill:none;stroke:black;stroke-width:0.4px;"/>
<circle cx="18" cy="35" r="0.4" style="fill:black;stroke:black;stroke-width:0.5px;"/>
<!-- B -->
<polyline points="30,20 24,20 24,60 50,60" style="fill:none;stroke:black;stroke-width:0.4px;"/>
<circle cx="24" cy="45" r="0.4" style="fill:black;stroke:black;stroke-width:0.5px;"/>
<line x1= "10" y1="35" x2="37" y2="35" style="fill:none;stroke:black;stroke-width:0.4px;"/>
<text x="7" y="36" font-size="4">A</text>
<line x1= "10" y1="45" x2="37" y2="45" style="fill:none;stroke:black;stroke-width:0.4px;"/>
<text x="7" y="46" font-size="4">B</text>
<!-- outs -->
<text x="75" y="16" font-size="5">&gt;</text>
<text x="75" y="42" font-size="5">=</text>
<text x="75" y="66" font-size="5">&lt;</text>
</svg>
