<?xml version="1.0" encoding="UTF-8" standalone="no"?>
<svg
   xmlns:dc="http://purl.org/dc/elements/1.1/"
   xmlns:cc="http://creativecommons.org/ns#"
   xmlns:rdf="http://www.w3.org/1999/02/22-rdf-syntax-ns#"
   xmlns:svg="http://www.w3.org/2000/svg"
   xmlns="http://www.w3.org/2000/svg"
   xmlns:sodipodi="http://sodipodi.sourceforge.net/DTD/sodipodi-0.dtd"
   xmlns:inkscape="http://www.inkscape.org/namespaces/inkscape"
   width="100.00"
   height="100.00"
   viewBox="0.0 0.0 150.0 100.0"
   version="1.1"
   viewport="0 0 150px 100px"
   id="svg10"
   sodipodi:docname="or_gate.svg"
   inkscape:version="0.92.4 (5da689c313, 2019-01-14)">
  <metadata
     id="metadata16">
    <rdf:RDF>
      <cc:Work
         rdf:about="">
        <dc:format>image/svg+xml</dc:format>
        <dc:type
           rdf:resource="http://purl.org/dc/dcmitype/StillImage" />
      </cc:Work>
    </rdf:RDF>
  </metadata>
  <defs
     id="defs14" />
  <sodipodi:namedview
     pagecolor="#ffffff"
     bordercolor="#666666"
     borderopacity="1"
     objecttolerance="10"
     gridtolerance="10"
     guidetolerance="10"
     inkscape:pageopacity="0"
     inkscape:pageshadow="2"
     inkscape:window-width="2560"
     inkscape:window-height="1381"
     id="namedview12"
     showgrid="false"
     inkscape:zoom="18.88"
     inkscape:cx="36.499495"
     inkscape:cy="46.542544"
     inkscape:window-x="0"
     inkscape:window-y="0"
     inkscape:window-maximized="1"
     inkscape:current-layer="svg10" />
  <!--inputs-->
  <line
     x1="10"
     y1="25"
     x2="35"
     y2="25"
     style="fill:#ffffff;stroke:#000000"
     stroke-width="2px"
     id="line5" />
  <line
     x1="10"
     y1="75"
     x2="35"
     y2="75"
     style="fill:#ffffff;stroke:#000000"
     stroke-width="2px"
     id="line7" />
  <!--output-->
  <line
     x1="110"
     y1="50"
     x2="130"
     y2="50"
     style="fill:#ffffff;stroke:#000000"
     stroke-width="2px"
     id="line9" />
  <!--symbol-->
  <line
     x1="30"
     y1="10"
     x2="70"
     y2="10"
     style="fill:#ffffff;stroke:#000000"
     stroke-width="2px"
     id="line11" />
  <line
     x1="30"
     y1="90"
     x2="70"
     y2="90"
     style="fill:#ffffff;stroke:#000000"
     stroke-width="2px"
     id="line13" />
  <path
     id="ellipse8"
     style="fill:none;stroke:#000000;stroke-width:2px"
     sodipodi:type="arc"
     sodipodi:cx="70"
     sodipodi:cy="50"
     sodipodi:rx="40"
     sodipodi:ry="40"
     sodipodi:start="4.7"
     sodipodi:end="1.5656212"
     sodipodi:open="true"
     d="m 69.504453,10.00307 a 40,40 0 0 1 34.935157,19.652064 40,40 0 0 1 0.352,40.081724 40,40 0 0 1 -34.584606,20.262606" />
  <path
     id="ellipse9"
     style="fill:none;stroke:#000000;stroke-width:2px"
     sodipodi:type="arc"
     sodipodi:cx="30"
     sodipodi:cy="50"
     sodipodi:rx="12.351695"
     sodipodi:ry="40"
     sodipodi:start="4.7"
     sodipodi:end="1.5656212"
     sodipodi:open="true"
     d="M 29.846979,10.00307 A 12.351695,40 0 0 1 40.634688,29.655134 12.351695,40 0 0 1 40.743385,69.736858 12.351695,40 0 0 1 30.063921,89.999464" />
  <g transform="translate(-5.0 0.0)">
    <path
        id="ellipse10"
        style="fill:none;stroke:#000000;stroke-width:2px"
        sodipodi:type="arc"
        sodipodi:cx="15"
        sodipodi:cy="50"
        sodipodi:rx="12.351695"
        sodipodi:ry="40"
        sodipodi:start="4.7"
        sodipodi:end="1.5656212"
        sodipodi:open="true"
        d="M 29.846979,10.00307 A 12.351695,40 0 0 1 40.634688,29.655134 12.351695,40 0 0 1 40.743385,69.736858 12.351695,40 0 0 1 30.063921,89.999464" />
    </g>
</svg>
