<svg width="140.00" height="50.00"
     viewBox="0.0 0.0 140.0 50.0"
     viewPort="0 0 140px 50px"
     version="1.1"
     xmlns:xlink="http://www.w3.org/1999/xlink"
     xmlns="http://www.w3.org/2000/svg">
    <symbol id="resistor">
        <line x1="23" y1="15" x2="35" y2="15" style="stroke:black;stroke-width:0.6px;fill:none;"/>
        <rect x="15" y="13.5" width="8" height="3" style="stroke:black;stroke-width:0.6px;fill:none;"/>
        <line x1="7" y1="15" x2="15" y2="15" style="stroke:black;stroke-width:0.6px;fill:none;"/>
    </symbol>
    <symbol id="resistor_v">
        <line x1="45" y1="33" x2="45" y2="50" style="stroke:black;"/>
        <line x1="45" y1="65" x2="45" y2="80" style="stroke:black;"/>
        <rect x="42" y="50" width="6" height="15" style="stroke:black;fill:none"/>
    </symbol>
    <symbol id="op-amp">
        <polygon points="30,10  30,30  50,20 " style="stroke:black;stroke-width:0.6px;fill:none;"/>
        <line x1="20" y1="15" x2="30" y2="15" style="stroke:black;stroke-width:0.6px;fill:none;"/>
        <line x1="25" y1="26" x2="30" y2="26" style="stroke:black;stroke-width:0.6px;fill:none;"/>
        <line x1="50" y1="20" x2="58" y2="20" style="stroke:black;stroke-width:0.6px;fill:none;"/>
        <text x="32" y="17" font-size="5">-</text>
        <text x="31" y="27" font-size="5">+</text>
    </symbol>
    <symbol id="ground">
        <line x1="12" y1="15" x2="12" y2="19" style="stroke:black;stroke-width:0.6px;fill:none;stroke-linecap:round;"/>
        <line x1="9" y1="19" x2="15" y2="19" style="stroke:black;stroke-width:0.6px;fill:none;"/>
    </symbol>
    <circle cx="95" cy="15" r="0.3"  style="stroke:black;fill:black"/>
    <circle cx="123" cy="20" r="0.3"  style="stroke:black;fill:black"/>
    <use href="#resistor" transform="translate(88,-8)"/>
    <use href="#resistor" transform="rotate(90 21 15) translate(14,-69)"/>
    <circle cx="90" cy="15" r="0.3"  style="stroke:black;fill:black"/>
        <circle cx="90" cy="43" r="0.3"  style="stroke:black;fill:black"/>
    <use href="#resistor" transform="translate(65,0)"/>
    <use href="#resistor" transform="rotate(90 21 15) translate(14,-53)"/>
    <circle cx="74" cy="15" r="0.3"  style="stroke:black;fill:black"/>
    <circle cx="74" cy="43" r="0.3"  style="stroke:black;fill:black"/>
    <use href="#resistor" transform="translate(45,0)"/>
    <use href="#resistor" transform="rotate(90 21 15) translate(14,-33)"/>
    <circle cx="54" cy="15" r="0.3"  style="stroke:black;fill:black"/>
    <circle cx="54" cy="43" r="0.3"  style="stroke:black;fill:black"/>
    <use href="#resistor" transform="rotate(90 21 15) translate(14,-13)"/>
    <circle cx="34" cy="15" r="0.3"  style="stroke:black;fill:black"/>
    <circle cx="34" cy="43" r="0.3"  style="stroke:black;fill:black"/>
    <use href="#resistor" transform="translate(25,0)"/>
    <use href="#resistor" transform="translate(5,0)"/>
    <use href="#op-amp" transform="translate(70)"/>
    <use href="#ground"/>

     <circle cx="128" cy="20" r="0.3"  style="stroke:black;fill:black"/>
    <use href="#ground" transform="translate(83,11)"/>
    <line x1="95" y1="15" x2="95" y2="7" style="stroke:black;stroke-width:0.6px;fill:none;stroke-linecap:round;"/>
    <line x1="123" y1="7" x2="123" y2="20" style="stroke:black;stroke-width:0.6px;fill:none;"/>
    <text x="20" y="12" font-size="4">2R</text>
    <text x="105" y="5" font-size="4">2R</text>
    <text x="42" y="12" font-size="4">R</text>
    <text x="62" y="12" font-size="4">R</text>


    <text x="130" y="21.5" font-size="4">OUT</text>

    <text x="27" y="28" font-size="4">2R</text>
    <text x="47" y="28" font-size="4">2R</text>
    <text x="67" y="28" font-size="4">2R</text>
    <text x="83" y="28" font-size="4">2R</text>

    <text x="29" y="48" font-size="4">D0</text>
    <text x="49" y="48" font-size="4">D1</text>
    <text x="70" y="48" font-size="4">D2</text>
    <text x="87" y="48" font-size="4">D3</text>
</svg>
