<svg width="100.00" height="100.00"
     viewBox="0.0 0.0 100.0 100.0"
     viewPort="0 0 100px 50px"
     version="1.1"
     xmlns:xlink="http://www.w3.org/1999/xlink"
     xmlns="http://www.w3.org/2000/svg">
    <defs>
        <marker id="endarrow" markerWidth="4" markerHeight="3" refX="0" refY="1.5" orient="auto" markerUnits="strokeWidth">
            <polygon points="0 0, 4 1.5, 0 3" fill="black" />
        </marker>
        <marker id="arrow" markerWidth="4" markerHeight="3" refX="4" refY="1.5" orient="auto" markerUnits="strokeWidth">
            <polygon points="4 0, 0 1.5, 4 3" fill="black" />
        </marker>
    </defs>
    <line x1="15" y1="20" x2="30" y2="20" style="stroke:black"/>
    <line x1="60" y1="20" x2="70" y2="20" style="stroke:black;"/>

    <line x1="32" y1="10" x2="55" y2="10" style="stroke:black" marker-end="url(#endarrow)"/>
    <line x1="32" y1="15" x2="55" y2="15" style="stroke:black" marker-end="url(#endarrow)"/>
    <line x1="32" y1="20" x2="55" y2="20" style="stroke:black" marker-end="url(#endarrow)"/>
    <line x1="32" y1="25" x2="55" y2="25" style="stroke:black" marker-end="url(#endarrow)"/>
    <line x1="32" y1="30" x2="55" y2="30" style="stroke:black" marker-end="url(#endarrow)"/>
    <text x="37" y="36" font-size="6">E</text>
    <line x1="30" y1="5" x2="30" y2="35" style="stroke:black;stroke-width:2px"/>
    <line x1="60" y1="5" x2="60" y2="35" style="stroke:black;stroke-width:2px"/>
    <text x="37" y="5" font-size="6">d</text>
    <line x1="32" y1="2" x2="57" y2="2" style="stroke:black" marker-start="url(#arrow)" marker-end="url(#endarrow)"/>

    <line x1="36" y1="40" x2="52" y2="40" style="stroke:black" marker-end="url(#endarrow)"/>
    <text x="37" y="46" font-size="5">U = E d</text>

    <text x="18" y="16" font-size="5">+Q</text>
    <text x="62" y="16" font-size="5">-Q</text>

    <rect x="40" y="50" width="15" height="15" style="stroke:black;fill:none;stroke-width:1px"/>
    <text x="45" y="60" font-size="7">G</text>
    <polyline points=" 20 20, 10  20, 10 58, 40 58"  style="stroke:black;fill:none;stroke-width:1px; stroke-dasharray:2,2"/>
    <polyline points=" 65 20, 75  20, 75 58, 56 58"  style="stroke:black;fill:none;stroke-width:1px;stroke-dasharray:2,2"/>

</svg>
