<?xml version="1.0" encoding="UTF-8" standalone="no"?>
<!-- Created with Inkscape (http://www.inkscape.org/) -->
<svg
   xmlns:dc="http://purl.org/dc/elements/1.1/"
   xmlns:cc="http://creativecommons.org/ns#"
   xmlns:rdf="http://www.w3.org/1999/02/22-rdf-syntax-ns#"
   xmlns:svg="http://www.w3.org/2000/svg"
   xmlns="http://www.w3.org/2000/svg"
   xmlns:sodipodi="http://sodipodi.sourceforge.net/DTD/sodipodi-0.dtd"
   xmlns:inkscape="http://www.inkscape.org/namespaces/inkscape"
   width="800"
   height="500"
   id="svg3570"
   sodipodi:version="0.32"
   inkscape:version="0.46"
   version="1.0"
   sodipodi:docname="phasenverschiebung_induktiv.svg"
   inkscape:output_extension="org.inkscape.output.svg.inkscape">
  <sodipodi:namedview
     id="base"
     pagecolor="#ffffff"
     bordercolor="#666666"
     borderopacity="1.0"
     gridtolerance="10000"
     guidetolerance="10"
     objecttolerance="10"
     inkscape:pageopacity="0.0"
     inkscape:pageshadow="2"
     inkscape:zoom="0.98994949"
     inkscape:cx="307.80062"
     inkscape:cy="302.55767"
     inkscape:document-units="px"
     inkscape:current-layer="layer1"
     showgrid="true"
     inkscape:window-width="1280"
     inkscape:window-height="961"
     inkscape:window-x="-4"
     inkscape:window-y="-4">
    <inkscape:grid
       type="xygrid"
       id="grid3590"
       visible="false"
       enabled="true" />
  </sodipodi:namedview>
  <defs
     id="defs3572">
    <inkscape:perspective
       sodipodi:type="inkscape:persp3d"
       inkscape:vp_x="0 : 526.18109 : 1"
       inkscape:vp_y="0 : 1000 : 0"
       inkscape:vp_z="744.09448 : 526.18109 : 1"
       inkscape:persp3d-origin="372.04724 : 350.78739 : 1"
       id="perspective3578" />
  </defs>
  <metadata
     id="metadata3575">
    <rdf:RDF>
      <cc:Work
         rdf:about="">
        <dc:format>image/svg+xml</dc:format>
        <dc:type
           rdf:resource="http://purl.org/dc/dcmitype/StillImage" />
      </cc:Work>
    </rdf:RDF>
  </metadata>
  <g
     inkscape:label="Layer 1"
     inkscape:groupmode="layer"
     id="layer1">
    <path
       style="fill:#000000;fill-opacity:1;fill-rule:evenodd;stroke:#000000;stroke-width:1px;stroke-linecap:butt;stroke-linejoin:miter;stroke-opacity:1"
       d="M 20,0 L 10,40 L 30,40 L 20,0 z"
       id="path4107" />
    <path
       style="opacity:0.89419795000000002;fill:none;fill-opacity:1;fill-rule:evenodd;stroke:#0000ff;stroke-width:5;stroke-linecap:butt;stroke-linejoin:bevel;stroke-miterlimit:4;stroke-dasharray:none;stroke-dashoffset:0;stroke-opacity:1"
       d=" M 20.0 250.0 C 22.5252525253 243.917792007 25.0505050505 237.835607129 27.5757575758 231.772509923 C 30.101010101 225.709412717 32.6262626263 219.665525747 35.1515151515 213.659678926 C 37.6767676768 207.653832105 40.202020202 201.686261801 42.7272727273 195.775444833 C 45.2525252525 189.864627865 47.7777777778 184.010912917 50.303030303 178.232307489 C 52.8282828283 172.453702062 55.3535353535 166.75066496 57.8787878788 161.140621091 C 60.404040404 155.530577221 62.9292929293 150.014092625 65.4545454545 144.607900003 C 67.9797979798 139.201707381 70.5050505051 133.90647645 73.0303030303 128.73814245 C 75.5555555556 123.569808449 78.0808080808 118.529140559 80.6060606061 113.631176317 C 83.1313131313 108.733212075 85.6565656566 103.978815286 88.1818181818 99.3820311926 C 90.7070707071 94.7852470988 93.2323232323 90.3470286966 95.7575757576 86.0803405829 C 98.2828282828 81.8136524691 100.808080808 77.7195308362 103.333333333 73.8097780826 C 105.858585859 69.9000253291 108.383838384 66.1757543251 110.909090909 62.6475310284 C 113.434343434 59.1193077318 115.95959596 55.7883146902 118.484848485 52.663814956 C 121.01010101 49.5393152217 123.535353535 46.6225535814 126.060606061 43.921431913 C 128.585858586 41.2203102446 131.111111111 38.7361277432 133.636363636 36.4753754063 C 136.161616162 34.2146230694 138.686868687 32.178646328 141.212121212 30.3724844679 C 143.737373737 28.5663226077 146.262626263 26.9913588323 148.787878788 25.6511490164 C 151.313131313 24.3109392004 153.838383838 23.2068956189 156.363636364 22.3410683674 C 158.888888889 21.4752411159 161.414141414 20.8490626572 163.939393939 20.4630644115 C 166.464646465 20.0770661658 168.98989899 19.9326917729 171.515151515 20.028950635 C 174.04040404 20.1252094971 176.565656566 20.4635473497 179.090909091 21.0414578082 C 181.616161616 21.6193682666 184.141414141 22.4382900681 186.666666667 23.4942168072 C 189.191919192 24.5501435463 191.717171717 25.8444979114 194.242424242 27.3717986788 C 196.767676768 28.8990994463 199.292929293 30.6607443061 201.818181818 32.6498116956 C 204.343434343 34.6388790851 206.868686869 36.8567329042 209.393939394 39.2950547906 C 211.919191919 41.7333766771 214.444444444 44.393488161 216.96969697 47.2657264071 C 219.494949495 50.1379646531 222.02020202 53.2236005087 224.545454545 56.5116874488 C 227.070707071 59.799774389 229.595959596 63.291524584 232.121212121 66.9747766779 C 234.646464646 70.6580287719 237.171717172 74.5339286329 239.696969697 78.5891765746 C 242.222222222 82.6444245162 244.747474747 86.8800928965 247.272727273 91.2818273591 C 249.797979798 95.6835618218 252.323232323 100.252354469 254.848484848 104.972886571 C 257.373737374 109.693418672 259.898989899 114.566595833 262.424242424 119.576231312 C 264.949494949 124.58586679 267.474747475 129.732773997 270.0 135.0 C 272.525252525 140.267226003 275.050505051 145.655486904 277.575757576 151.147170219 C 280.101010101 156.638853535 282.626262626 162.234573554 285.151515152 167.916169034 C 287.676767677 173.597764514 290.202020202 179.365744064 292.727272727 185.201511926 C 295.252525253 191.037279789 297.777777778 196.941235695 300.303030303 202.894466345 C 302.828282828 208.847696995 305.353535354 214.850490729 307.878787879 220.883735678 C 310.404040404 226.916980628 312.929292929 232.980851926 315.454545455 239.056159361 C 317.97979798 245.131466795 320.505050505 251.218271191 323.03030303 257.297424705 C 325.555555556 263.376578218 328.080808081 269.448026984 330.606060606 275.492785977 C 333.131313131 281.53754497 335.656565657 287.555445973 338.181818182 293.527786203 C 340.707070707 299.500126433 343.232323232 305.426624378 345.757575758 311.288977149 C 348.282828283 317.151329919 350.808080808 322.94914448 353.333333333 328.664632965 C 355.858585859 334.38012145 358.383838384 340.012781774 360.909090909 345.54545299 C 363.434343434 351.078124206 365.95959596 356.510198337 368.484848485 361.825249303 C 371.01010101 367.140300269 373.535353535 372.337618026 376.060606061 377.401614689 C 378.585858586 382.465611353 381.111111111 387.395479278 383.636363636 392.176566831 C 386.161616162 396.957654384 388.686868687 401.589061399 391.212121212 406.057164658 C 393.737373737 410.525267918 396.262626263 414.829080397 398.787878788 418.956092991 C 401.313131313 423.083105585 403.838383838 427.03225062 406.363636364 430.792211791 C 408.888888889 434.552172961 411.414141414 438.12180866 413.939393939 441.491066566 C 416.464646465 444.860324472 418.98989899 448.027996226 421.515151515 450.985356726 C 424.04040404 453.942717226 426.565656566 456.688498961 429.090909091 459.215358932 C 431.616161616 461.742218902 434.141414141 464.048838421 436.666666667 466.129302781 C 439.191919192 468.209767141 441.717171717 470.062714772 444.242424242 471.683696469 C 446.767676768 473.304678165 449.292929293 474.692298039 451.818181818 475.84360037 C 454.343434343 476.994902702 456.868686869 477.908466067 459.393939394 478.582846826 C 461.919191919 479.257227585 464.444444444 479.690987719 466.96969697 479.884204748 C 469.494949495 480.077421778 472.02020202 480.028650134 474.545454545 479.739488012 C 477.070707071 479.45032589 479.595959596 478.919329265 482.121212121 478.149606951 C 484.646464646 477.379884637 487.171717172 476.370003237 489.696969697 475.124562629 C 492.222222222 473.879122022 494.747474747 472.396708453 497.272727273 470.683383931 C 499.797979798 468.97005941 502.323232323 467.024438718 504.848484848 464.854007861 C 507.373737374 462.683577004 509.898989899 460.286988015 512.424242424 457.673103806 C 514.94949495 455.059219597 517.474747475 452.226737929 520.0 449.18584287 C 522.525252525 446.144947812 525.05050505 442.894391045 527.575757576 439.445613729 C 530.101010101 435.996836413 532.626262626 432.348652005 535.151515152 428.513686787 C 537.676767677 424.678721569 540.202020202 420.655858235 542.727272727 416.458828764 C 545.252525253 412.261799293 547.777777778 407.889562647 550.303030303 403.356870119 C 552.828282828 398.824177591 555.353535354 394.130070959 557.878787879 389.290228042 C 560.404040404 384.450385124 562.929292929 379.463936541 565.454545455 374.347388015 C 567.97979798 369.230839488 570.505050505 363.98341595 573.03030303 358.622347198 C 575.555555556 353.261278445 578.080808081 347.785888597 580.606060606 342.214023144 C 583.131313131 336.64215769 585.656565657 330.973244187 588.181818182 325.225631563 C 590.707070707 319.478018939 593.232323232 313.651241788 595.757575758 307.764037052 C 598.282828283 301.876832315 600.808080808 295.928844556 603.333333333 289.939080863 C 605.858585859 283.949317171 608.383838384 277.917534311 610.909090909 271.86288996 C 613.434343434 265.808245609 615.95959596 259.730610266 618.484848485 253.649171682 C 621.01010101 247.567733098 623.535353535 241.482476321 626.060606061 235.412498479 C 628.585858586 229.342520637 631.111111111 223.287921418 633.636363636 217.267587197 C 636.161616162 211.247252977 638.686868687 205.261397458 641.212121212 199.328577459 C 643.737373737 193.39575746 646.262626263 187.516299355 648.787878788 181.708313674 C 651.313131313 175.900327994 653.838383838 170.164251728 656.363636364 164.517635198 C 658.888888889 158.871018668 661.414141414 153.314406732 663.939393939 147.864679101 C 666.464646465 142.414951469 668.98989899 137.072757442 671.515151515 131.854199938 C 674.04040404 126.635642434 676.565656566 121.54147111 679.090909091 116.586910799 C 681.616161616 111.632350487 684.141414141 106.818246486 686.666666667 102.158849772 C 689.191919192 97.499453058 691.717171717 92.9956992514 694.242424242 88.6607758275 C 696.767676768 84.3258524037 699.292929293 80.1607794212 701.818181818 76.1775978985 C 704.343434343 72.1944163758 706.868686869 68.3942243929 709.393939394 64.7878407679 C 711.919191919 61.1814571429 714.444444444 57.7700510699 716.96969697 54.5631511116 C 719.494949495 51.3562511533 722.02020202 48.3550902632 724.545454545 45.5678468094 C 727.070707071 42.7806033556 729.595959596 40.208566295 732.121212121 37.8585123559 C 734.646464646 35.5084584169 737.171717172 33.3817244516 739.696969697 31.4836429196 C 742.222222222 29.5855613876 744.747474747 27.9175086272 747.272727273 26.4833392856 C 749.797979798 25.049169944 752.323232323 23.8502911878 754.848484848 22.8890556044 C 757.373737374 21.9278200211 759.898989899 21.2056567536 762.424242424 20.7234015311 C 764.94949495 20.2411463085 767.474747475 20.0002412604 770.0 20.0"
       title="sin(x)"
       id="path4343" />
    <path
       style="fill:none;fill-rule:evenodd;stroke:#000000;stroke-width:5;stroke-linecap:butt;stroke-linejoin:miter;stroke-miterlimit:4;stroke-dasharray:none;stroke-opacity:1"
       d="M 620,250 L 620,270"
       id="path4185" />
    <path
       id="path5260"
       title="sin(x)"
       d=" M 20.0 403.333333333 C 22.5252525253 403.333172493 25.0505050505 403.172248459 27.5757575758 402.851065646 C 30.101010101 402.529882833 32.6262626263 402.047802346 35.1515151515 401.407296264 C 37.6767676768 400.766790181 40.202020202 399.966907425 42.7272727273 399.011107143 C 45.2525252525 398.055306861 47.7777777778 396.942653456 50.303030303 395.677571387 C 52.8282828283 394.412489318 55.3535353535 392.994064352 57.8787878788 391.427658429 C 60.404040404 389.861252507 62.9292929293 388.145978509 65.4545454545 386.288102127 C 67.9797979798 384.430225746 70.505050505 382.428892558 73.0303030303 380.291232592 C 75.5555555556 378.153572627 78.0808080808 375.878769532 80.6060606061 373.474772821 C 83.1313131313 371.070776111 85.6565656566 368.53681264 88.1818181818 365.881601401 C 90.7070707071 363.226390162 93.2323232323 360.44920608 95.7575757576 357.559482782 C 98.2828282828 354.669759483 100.808080808 351.666824522 103.333333333 348.560766819 C 105.858585859 345.454709115 108.383838384 342.244913082 110.909090909 338.942059468 C 113.434343434 335.639205853 115.95959596 332.242739804 118.484848485 328.763866708 C 121.01010101 325.284993612 123.535353535 321.72322284 126.060606061 318.090213933 C 128.585858586 314.457205026 131.111111111 310.752534665 133.636363636 306.988243201 C 136.161616162 303.223951738 138.686868687 299.399685824 141.212121212 295.527790884 C 143.737373737 291.655895943 146.262626263 287.736090823 148.787878788 283.780948361 C 151.313131313 279.825805898 153.838383838 275.835118902 156.363636364 271.821608535 C 158.888888889 267.808098168 161.414141414 263.771632507 163.939393939 259.725001014 C 166.464646465 255.678369521 168.98989899 251.621516371 171.515151515 247.567218879 C 174.04040404 243.512921386 176.565656566 239.461200172 179.090909091 235.424740027 C 181.616161616 231.388279882 184.141414141 227.367177745 186.666666667 223.373946091 C 189.191919192 219.380714437 191.717171717 215.415525913 194.242424242 211.490641966 C 196.767676768 207.565758019 199.292929293 203.681425919 201.818181818 199.849578958 C 204.343434343 196.017731997 206.868686869 192.238690512 209.393939394 188.523984571 C 211.919191919 184.80927863 214.444444444 181.159299623 216.96969697 177.585101868 C 219.494949495 174.010904113 222.02020202 170.512947588 224.545454545 167.101741323 C 227.070707071 163.690535059 229.595959596 160.36660473 232.121212121 157.139847972 C 234.646464646 153.913091214 237.171717172 150.784096093 239.696969697 147.762086588 C 242.222222222 144.740077082 244.747474747 141.825699949 247.272727273 139.027447491 C 249.797979798 136.229195032 252.323232323 133.547768625 254.848484848 130.990875475 C 257.373737374 128.433982325 259.898989899 126.002374019 262.424242424 123.702924181 C 264.94949495 121.403474343 267.474747475 119.236980042 270.0 117.209438086 C 272.525252525 115.18189613 275.05050505 113.294144056 277.575757576 111.551264129 C 280.101010101 109.808384203 282.626262626 108.211249161 285.151515152 106.763994759 C 287.676767677 105.316740358 290.202020202 104.020269044 292.727272727 102.877744046 C 295.252525253 101.735219048 297.777777778 100.747566847 300.303030303 99.9169582471 C 302.828282828 99.0863496472 305.353535354 98.4137293342 307.878787879 97.9002620326 C 310.404040404 97.386794731 312.929292929 97.0334373892 315.454545455 96.8403413253 C 317.97979798 96.6472452614 320.505050505 96.6153736667 323.03030303 96.7438635012 C 325.555555556 96.8723533358 328.080808081 97.1621679749 330.606060606 97.6114354493 C 333.131313131 98.0607029236 335.656565657 98.6703807326 338.181818182 99.4375997531 C 340.707070707 100.204818773 343.232323232 101.130524606 345.757575758 102.210869021 C 348.282828283 103.291213436 350.808080808 104.527124187 353.333333333 105.913798146 C 355.858585859 107.300472105 358.383838384 108.838813343 360.909090909 110.523094046 C 363.434343434 112.207374749 365.95959596 114.038469616 368.484848485 116.009762183 C 371.01010101 117.981054749 373.535353535 120.09338484 376.060606061 122.339288956 C 378.585858586 124.585193072 381.111111111 126.965470884 383.636363636 129.471858806 C 386.161616162 131.978246728 388.686868687 134.611499247 391.212121212 137.362604673 C 393.737373737 140.113710098 396.262626263 142.983372985 398.787878788 145.961890228 C 401.313131313 148.940407471 403.838383838 152.02842926 406.363636364 155.215622113 C 408.888888889 158.402814965 411.414141414 161.689770617 413.939393939 165.065590207 C 416.464646465 168.441409798 418.98989899 171.906622887 421.515151515 175.449833798 C 424.04040404 178.993044709 426.565656566 182.614717493 429.090909091 186.30303134 C 431.616161616 189.991345186 434.141414141 193.746695721 436.666666667 197.556911357 C 439.191919192 201.367126992 441.717171717 205.23253244 444.242424242 209.140681901 C 446.767676768 213.048831362 449.292929293 216.99997659 451.818181818 220.981475865 C 454.343434343 224.96297514 456.868686869 228.975005674 459.393939394 233.004809349 C 461.919191919 237.034613023 464.444444444 241.082291394 466.96969697 245.135050197 C 469.494949495 249.187809 472.02020202 253.245673497 474.545454545 257.29589376 C 477.070707071 261.346114022 479.595959596 265.388638859 482.121212121 269.410842881 C 484.646464646 273.433046903 487.171717172 277.434802788 489.696969697 281.403689103 C 492.222222222 285.372575419 494.747474747 289.308389513 497.272727273 293.198992049 C 499.797979798 297.089594585 502.323232323 300.934708854 504.848484848 304.722553977 C 507.373737374 308.510399101 509.898989899 312.240626053 512.424242424 315.90188652 C 514.94949495 319.563146988 517.474747475 323.155021825 520.0 326.666666667 C 522.525252525 330.178311509 525.05050505 333.609239728 527.575757576 336.949179126 C 530.101010101 340.289118523 532.626262626 343.537518049 535.151515152 346.684742286 C 537.676767677 349.831966524 540.202020202 352.877403467 542.727272727 355.812115094 C 545.252525253 358.746826721 547.777777778 361.570143919 550.303030303 364.273882284 C 552.828282828 366.977620648 555.353535354 369.561058171 557.878787879 372.016815548 C 560.404040404 374.472572925 562.929292929 376.799879793 565.454545455 378.992208367 C 567.97979798 381.184536942 570.505050505 383.241073352 573.03030303 385.156182395 C 575.555555556 387.071291439 578.080808081 388.844120854 580.606060606 390.469963473 C 583.131313131 392.095806091 585.656565657 393.573776622 588.181818182 394.900125536 C 590.707070707 396.226474451 593.232323232 397.400288999 595.757575758 398.418800881 C 598.282828283 399.437312763 600.808080808 400.299587509 603.333333333 401.003855462 C 605.858585859 401.708123415 608.383838384 402.253434265 610.909090909 402.639028128 C 613.434343434 403.024621991 615.95959596 403.249538695 618.484848485 403.31403291 C 621.01010101 403.378527125 623.535353535 403.281634857 626.060606061 403.024623726 C 628.585858586 402.767612595 631.111111111 402.34952085 633.636363636 401.772621088 C 636.161616162 401.195721327 638.686868687 400.45906009 641.212121212 399.565900656 C 643.737373737 398.672741222 646.262626263 397.622144421 648.787878788 396.418343688 C 651.313131313 395.214542955 653.838383838 393.856619316 656.363636364 392.349749729 C 658.888888889 390.842880142 661.414141414 389.186171613 663.939393939 387.385712058 C 666.464646465 385.585252503 668.98989899 383.640180522 671.515151515 381.557456696 C 674.04040404 379.47473287 676.565656566 377.253532812 679.090909091 374.901645981 C 681.616161616 372.54975915 684.141414141 370.066403359 686.666666667 367.460147945 C 689.191919192 364.853892531 691.717171717 362.124002427 694.242424242 359.279772945 C 696.767676768 356.435543462 699.292929293 353.476291278 701.818181818 350.411979205 C 704.343434343 347.347667132 706.868686869 344.17766789 709.393939394 340.912549122 C 711.919191919 337.647430354 714.444444444 334.286624769 716.96969697 330.841238367 C 719.494949495 327.395851965 722.02020202 323.86538101 724.545454545 320.261399998 C 727.070707071 316.657418986 729.595959596 312.979490906 732.121212121 309.23958594 C 734.646464646 305.499680973 737.171717172 301.697431584 739.696969697 297.84512834 C 742.222222222 293.992825097 744.747474747 290.090172251 747.272727273 286.149703445 C 749.797979798 282.209234639 752.323232323 278.23072777 754.848484848 274.226880716 C 757.373737374 270.223033661 759.898989899 266.193699362 762.424242424 262.151660051 C 764.94949495 258.109620741 767.474747475 254.054805329 770.0 250.0"
       style="opacity:0.89419795;fill:none;fill-opacity:1;fill-rule:evenodd;stroke:#ff0000;stroke-width:5;stroke-linecap:butt;stroke-linejoin:bevel;stroke-miterlimit:4;stroke-dasharray:none;stroke-dashoffset:0;stroke-opacity:1" />
    <path
       style="fill:none;fill-rule:evenodd;stroke:#000000;stroke-width:5;stroke-linecap:butt;stroke-linejoin:miter;stroke-opacity:1;stroke-miterlimit:4;stroke-dasharray:none"
       d="M 20,10 L 20,480"
       id="path3592" />
    <text
       xml:space="preserve"
       style="font-size:36px;font-style:normal;font-weight:normal;fill:#000000;fill-opacity:1;stroke:none;stroke-width:1px;stroke-linecap:butt;stroke-linejoin:miter;stroke-opacity:1;font-family:Bitstream Vera Sans"
       x="590"
       y="300"
       id="text4209"><tspan
         sodipodi:role="line"
         id="tspan4211"
         x="590"
         y="300">360째</tspan></text>
    <path
       style="fill:none;fill-rule:evenodd;stroke:#000000;stroke-width:5;stroke-linecap:butt;stroke-linejoin:miter;stroke-miterlimit:4;stroke-dasharray:none;stroke-opacity:1"
       d="M 470,250 L 470,270"
       id="path4195" />
    <path
       style="fill:none;fill-rule:evenodd;stroke:#000000;stroke-width:5;stroke-linecap:butt;stroke-linejoin:miter;stroke-miterlimit:4;stroke-dasharray:none;stroke-opacity:1"
       d="M 0,250 L 780,250"
       id="path3594" />
    <path
       style="fill:none;fill-rule:evenodd;stroke:#000000;stroke-width:5;stroke-linecap:butt;stroke-linejoin:miter;stroke-miterlimit:4;stroke-dasharray:none;stroke-opacity:1"
       d="M 320,250 L 320,270"
       id="path4187" />
    <text
       xml:space="preserve"
       style="font-size:36px;font-style:normal;font-weight:normal;fill:#000000;fill-opacity:1;stroke:none;stroke-width:1px;stroke-linecap:butt;stroke-linejoin:miter;stroke-opacity:1;font-family:Bitstream Vera Sans"
       x="290"
       y="300"
       id="text4201"><tspan
         sodipodi:role="line"
         id="tspan4203"
         x="290"
         y="300">180째</tspan></text>
    <path
       style="fill:none;fill-rule:evenodd;stroke:#000000;stroke-width:5;stroke-linecap:butt;stroke-linejoin:miter;stroke-miterlimit:4;stroke-dasharray:none;stroke-opacity:1"
       d="M 170,250 L 170,270"
       id="path4189" />
    <path
       style="fill:#000000;fill-opacity:1;fill-rule:evenodd;stroke:#000000;stroke-width:1px;stroke-linecap:butt;stroke-linejoin:miter;stroke-opacity:1"
       d="M 800,250 L 760,240 L 760,260 L 800,250 z"
       id="path4105" />
    <text
       xml:space="preserve"
       style="font-size:36px;font-style:normal;font-weight:normal;fill:#000000;fill-opacity:1;stroke:none;stroke-width:1px;stroke-linecap:butt;stroke-linejoin:miter;stroke-opacity:1;font-family:Bitstream Vera Sans"
       x="150"
       y="300"
       id="text4197"><tspan
         sodipodi:role="line"
         id="tspan4199"
         x="150"
         y="300">90째</tspan></text>
    <text
       xml:space="preserve"
       style="font-size:36px;font-style:normal;font-weight:normal;fill:#000000;fill-opacity:1;stroke:none;stroke-width:1px;stroke-linecap:butt;stroke-linejoin:miter;stroke-opacity:1;font-family:Bitstream Vera Sans"
       x="440"
       y="300"
       id="text4205"><tspan
         sodipodi:role="line"
         id="tspan4207"
         x="440"
         y="300">270째</tspan></text>
    <path
       style="fill:none;fill-rule:evenodd;stroke:#0000ff;stroke-width:5;stroke-linecap:butt;stroke-linejoin:miter;stroke-opacity:1;stroke-miterlimit:4;stroke-dasharray:none"
       d="M 440,30 L 470,30"
       id="path5286" />
    <path
       style="fill:none;fill-rule:evenodd;stroke:#ff0000;stroke-width:5;stroke-linecap:butt;stroke-linejoin:miter;stroke-miterlimit:4;stroke-dasharray:none;stroke-opacity:1"
       d="M 440,70 L 470,70"
       id="path5288" />
    <text
       xml:space="preserve"
       style="font-size:36px;font-style:normal;font-weight:normal;fill:#000000;fill-opacity:1;stroke:none;stroke-width:1px;stroke-linecap:butt;stroke-linejoin:miter;stroke-opacity:1;font-family:Bitstream Vera Sans"
       x="480"
       y="40"
       id="text5290"><tspan
         sodipodi:role="line"
         id="tspan5292"
         x="480"
         y="40">Spannung</tspan></text>
    <text
       xml:space="preserve"
       style="font-size:36px;font-style:normal;font-weight:normal;fill:#000000;fill-opacity:1;stroke:none;stroke-width:1px;stroke-linecap:butt;stroke-linejoin:miter;stroke-opacity:1;font-family:Bitstream Vera Sans"
       x="480"
       y="80"
       id="text5294"><tspan
         sodipodi:role="line"
         id="tspan5296"
         x="480"
         y="80">Strom</tspan></text>
  </g>
</svg>
