<svg width="75.00" height="90.00"
     viewBox="0.0 0.0 75.0 90.0"
     viewPort="0 0 75px 90px"
     version="1.1"
     xmlns:xlink="http://www.w3.org/1999/xlink"
     xmlns="http://www.w3.org/2000/svg">


    <!--resistors in series-->
    <text x="10" y="5" font-size="4">Series</text>
    <line x1="15" y1="8" x2="15" y2="15" style="stroke:black;fill:none;"/>
    <rect x="13" y="15" width="4" height="16" style="stroke:black;fill:none;"/>
    <text x="20" y="30" font-size="4" font-family="arial"><tspan>R</tspan>
        <tspan dx="-1" dy="1" font-size="3" font-family="arial">A</tspan></text>
    <line x1="15" y1="31" x2="15" y2="41" style="stroke:black;fill:none;"/>
    <rect x="13" y="41" width="4" height="16" style="stroke:black;fill:none;"/>
    <text x="20" y="58" font-size="4" font-family="arial"><tspan>R</tspan>
        <tspan dx="-1" dy="1" font-size="3" font-family="arial">B</tspan></text>
    <line x1="15" y1="57" x2="15" y2="65" style="stroke:black;fill:none;"/>
   
    <text x="10" y="70" font-size="4"><tspan>R</tspan>
         <tspan dx="-1" dy="2" font-size="2" font-family="arial">tot.</tspan></text>
    <text x="16" y="70" font-size="4"><tspan>= R</tspan>
     <tspan dx="-1" dy="1" font-size="2" font-family="arial">A</tspan></text>
    <text x="24" y="70" font-size="4"><tspan>+ R</tspan>
     <tspan dx="-1" dy="1" font-size="2" font-family="arial">B</tspan></text>
    
    
    <!--resistors in parallel-->
    <text x="42" y="5" font-size="4">Parallel</text>
    <line x1="47" y1="8" x2="47" y2="18" style="stroke:black;fill:none;"/>
    <circle cx="47" cy="18" r="0.9" style="stroke:black;"/>
    <polyline points="40,23 40,18 54,18 54,23"  style="stroke:black;fill:none;"/>
    <rect x="38" y="23" width="4" height="16" style="stroke:black;fill:none;"/>
    <rect x="52" y="23" width="4" height="16" style="stroke:black;fill:none;"/>
    <polyline points="40,39 40,43 54,43 54,39"  style="stroke:black;fill:none;"/>
    <text x="43" y="30" font-size="4" font-family="arial"><tspan>R</tspan>
        <tspan dx="-1" dy="1" font-size="3" font-family="arial">A</tspan></text>
    <text x="57" y="30" font-size="4" font-family="arial"><tspan>R</tspan>
        <tspan dx="-1" dy="1" font-size="3" font-family="arial">B</tspan></text>
    <circle cx="47" cy="43" r="0.9" style="stroke:black;"/>
    <line x1="47" y1="43" x2="47" y2="53" style="stroke:black;fill:none;"/>
    
    
    <text x="37" y="60" font-size="4"><tspan>G</tspan>
         <tspan dx="-1" dy="2" font-size="2" font-family="arial">tot.</tspan></text>
    <text x="41" y="60" font-size="4">=</text>
    <text x="45" y="60" font-size="4"><tspan>G</tspan>
     <tspan dx="-1" dy="1" font-size="2" font-family="arial">A</tspan></text>
    <text x="49" y="60" font-size="4">+</text>
    <text x="52" y="60" font-size="4"><tspan>G</tspan>
     <tspan dx="-1" dy="1" font-size="2" font-family="arial">B</tspan></text>
    <text x="57" y="60" font-size="3.5">with</text>
    <text x="65" y="60" font-size="4">G=</text>
    <text x="72" y="58" font-size="4">1</text>
    <line x1="71" y1="58.6" x2="75" y2="58.6" style="stroke:black;stroke-width:0.3px"/>
    <text x="72" y="62" font-size="4">R</text>
    
    
    <text x="37" y="67" font-size="4">1</text>
    <line x1="36" y1="68.6" x2="40" y2="68.6" style="stroke:black;stroke-width:0.3px"/>
    <text x="37" y="72.5" font-size="4"><tspan>R</tspan>
         <tspan dx="-1" dy="2" font-size="2" font-family="arial">tot.</tspan></text>
    <text x="41" y="70" font-size="4">=</text>
   
    <text x="45" y="67" font-size="4">1</text>
    <line x1="44" y1="68.6" x2="48" y2="68.6" style="stroke:black;stroke-width:0.3px"/>
    <text x="45" y="72.5" font-size="4"><tspan>R</tspan>
    <tspan dx="-1" dy="1" font-size="2" font-family="arial">A</tspan></text>
    <text x="48.5" y="70" font-size="4">+</text>
    <text x="52" y="67" font-size="4">1</text>
    <line x1="51" y1="68.6" x2="55" y2="68.6" style="stroke:black;stroke-width:0.3px"/>
    <text x="52" y="72.5" font-size="4"><tspan>R</tspan>
     <tspan dx="-1" dy="1" font-size="2" font-family="arial">B</tspan></text>
   
    
    <!--<text x="40" y="70" font-size="4"><tspan>R</tspan>
         <tspan dx="-1" dy="2" font-size="2" font-family="arial">total</tspan></text>
     <text x="45" y="70" font-size="4">=</text>
     <line x1="49" y1="68.6" x2="60" y2="68.6" style="stroke:black;stroke-width:0.3px"/>
    <text x="53" y="67" font-size="4"><tspan>· R</tspan>
     <tspan dx="-1" dy="1" font-size="2" font-family="arial">B</tspan></text>
    <text x="49" y="67" font-size="4"><tspan>R</tspan>
     <tspan dx="-1" dy="1" font-size="2" font-family="arial">A</tspan></text>
    <text x="53" y="73" font-size="4"><tspan>+ R</tspan>
     <tspan dx="-1" dy="1" font-size="2" font-family="arial">B</tspan></text>
    <text x="49" y="73" font-size="4"><tspan>R</tspan>
    <tspan dx="-1" dy="1" font-size="2" font-family="arial">A</tspan></text>-->
     
</svg>
