<svg width="100.00" height="80.00" 
     viewBox="0.0 0.0 100.0 80.0" 
     viewPort="0 0 100px 80px" 
     version="1.1"
     xmlns:xlink="http://www.w3.org/1999/xlink"
     xmlns="http://www.w3.org/2000/svg">
    
    <circle cx="15" cy="40" r="9" style="stroke:black;fill:white;"/>
    <line x1="15" y1="12" x2="15" y2="50" style="stroke:black;"/>
    <polyline points="15,31 15,10 90,10 90,32" style="stroke:black;fill:none;"/>
    <polyline points="90,48, 90,70, 15,70 15,49" style="stroke:black;fill:none;"/>
    <!--resisitor-->
    <rect x="58" y="32" width="4" height="16" style="stroke:black;fill:none;"/>
    <text x="64" y="45" font-size="4" font-family="arial"><tspan>R</tspan>
        <tspan dx="-1" dy="1" font-size="3" font-family="arial">x</tspan></text>
    
    <!--vmeter-->
    <circle cx="90" cy="40" r="9" style="stroke:black;fill:white;"/>
    <text x="87" y="43" font-size="8" font-family="arial">V</text>-->
    
    
     <!--ameter-->
    <circle cx="40" cy="70" r="9" style="stroke:black;fill:white;"/>
    <text x="38" y="73" font-size="8" font-family="arial">A</text>-->
    
    <line x1="60" y1="10" x2="60" y2="32" style="stroke:black;"/>
    <line x1="60" y1="70" x2="60" y2="48" style="stroke:black;"/>
    
    <!--joints-->
    <circle cx="60" cy="25" r="0.9" style="stroke:black;fill:white;"/>
    <circle cx="60" cy="55" r="0.9" style="stroke:black;fill:white;"/>
    
    <circle cx="60" cy="10" r="0.9" style="stroke:black;"/>
    <circle cx="60" cy="70" r="0.9" style="stroke:black;"/>
</svg>
