<svg width="50px" 
     height="34px" 
     viewBox="0.0 0.0 50.00 34.00" 
     viewPort = "0 0 50 34" 
     xmlns="http://www.w3.org/2000/svg" version="1.1">
    <rect x="5" y="0" width="40" height="6" style="fill:none;stroke:black;stroke-width:0.5px;"/>
    <line x1="10" y1="0" x2="10" y2="6" style="fill:none;stroke:black;stroke-width:0.5px;"/>
    <line x1="15" y1="0" x2="15" y2="6" style="fill:none;stroke:black;stroke-width:0.5px;"/>
    <line x1="20" y1="0" x2="20" y2="6" style="fill:none;stroke:black;stroke-width:0.5px;"/>
    <line x1="25" y1="0" x2="25" y2="6" style="fill:none;stroke:black;stroke-width:0.5px;"/>
    <line x1="30" y1="0" x2="30" y2="6" style="fill:none;stroke:black;stroke-width:0.5px;"/>
    <line x1="35" y1="0" x2="35" y2="6" style="fill:none;stroke:black;stroke-width:0.5px;"/>
    <line x1="40" y1="0" x2="40" y2="6" style="fill:none;stroke:black;stroke-width:0.5px;"/>
    <text x="6" y="4" font-size="4">0</text>
    <text x="11" y="4" font-size="4">0</text>
    <text x="16" y="4" font-size="4">0</text>
    <text x="21" y="4" font-size="4">0</text>
    <text x="26" y="4" font-size="4">1</text>
    <text x="31" y="4" font-size="4">1</text>
    <text x="36" y="4" font-size="4">1</text>
    <text x="41" y="4" font-size="4">1</text>
    <text x="5" y="10" font-size="2.4"  style="fill:blue;">MSB</text>
    <text x="40" y="10" font-size="2.4"  style="fill:blue;">LSB</text>
   
    <rect x="5" y="15" width="40" height="6" style="fill:none;stroke:black;stroke-width:0.5px;"/>
    <rect x="5" y="15" width="5" height="6" style="fill:#f2d16b;stroke:black;stroke-width:0.5px;"/>
    <line x1="10" y1="15" x2="10" y2="21" style="fill:none;stroke:black;stroke-width:0.5px;"/>
    <line x1="15" y1="15" x2="15" y2="21" style="fill:none;stroke:black;stroke-width:0.5px;"/>
    <line x1="20" y1="15" x2="20" y2="21" style="fill:none;stroke:black;stroke-width:0.5px;"/>
    <line x1="25" y1="15" x2="25" y2="21" style="fill:none;stroke:black;stroke-width:0.5px;"/>
    <line x1="30" y1="15" x2="30" y2="21" style="fill:none;stroke:black;stroke-width:0.5px;"/>
    <line x1="35" y1="15" x2="35" y2="21" style="fill:none;stroke:black;stroke-width:0.5px;"/>
    <line x1="40" y1="15" x2="40" y2="21" style="fill:none;stroke:black;stroke-width:0.5px;"/>
    <text x="6" y="19" font-size="4">0</text>
    <text x="11" y="19" font-size="4">0</text>
    <text x="16" y="19" font-size="4">0</text>
    <text x="21" y="19" font-size="4">0</text>
    <text x="26" y="19" font-size="4">1</text>
    <text x="31" y="19" font-size="4">1</text>
    <text x="36" y="19" font-size="4">1</text>
    <text x="41" y="19" font-size="4">1</text>
    <text x="5" y="24" font-size="3" style="fill:blue;">sign bit</text>
    <rect x="5" y="25" width="18" height="5" style="fill:#f2d16b;stroke:#f2d16b;stroke-width:0.5px;"/>
    <text x="5" y="29" font-size="4" style="fill:black;">0=+ ; 1=-</text>
</svg>

