<svg width="130px" 
     height="75px" 
     viewBox="0.0 0.0 130.00 75.00" 
     viewPort = "0 0 130 75" 
     xmlns="http://www.w3.org/2000/svg" version="1.1">
    <defs>
            <g id="alu" transform="scale(0.9)">
                <polyline points="10,5 10,10 10,15 12.5,17.5 10,20 10,25 10,30 20,25 20,10 10,5 10,10" style="fill:white;stroke:black;stroke-width:0.5px;"/>
                <text x="12" y="20" font-size="3">Add</text>
            </g>
            <g id="alu2" transform="scale(1.2)">
                <polyline points="10,5 10,10 10,15 12.5,17.5 10,20 10,25 10,30 20,25 20,10 10,5 10,10" style="fill:white;stroke:black;stroke-width:0.5px;"/>
                <text x="13" y="18.5" font-size="3">ALU</text>
            </g>
             <marker id="arrow" markerWidth="10" markerHeight="10" refX="0" refY="1.5" orient="auto" markerUnits="strokeWidth">
            <path d="M0,0 L0,3 L4.5,2 z" fill="black" />
            </marker>
    </defs>
    <polyline points="10,42 18,42" style="fill:white;stroke:black;stroke-width:0.5px;" marker-end="url(#arrow)"/>
    <circle cx="12" cy="42" r="0.5" style="fill:none;stroke:black;stroke-width:0.5px;"/>-
    <!--     data path -->
    <rect x="20" y="30" width="35" height="35" style="fill:none;stroke:black;stroke-width:0.5px;"/>
    <text x="22" y="35" font-size="3">Data</text>
    <text x="40" y="45" font-size="3">Registers</text>
    <text x="22" y="43" font-size="3">Register # </text>
    <text x="22" y="50" font-size="3">Register # </text>
    <text x="22" y="57" font-size="3">Register # </text>
    <polyline points="55,38 65,38" style="fill:white;stroke:black;stroke-width:0.5px;" marker-end="url(#arrow)"/>
    <polyline points="55,55 65,55" style="fill:white;stroke:black;stroke-width:0.5px;" marker-end="url(#arrow)"/>
    <polyline points="58,55 58,63 88,63" style="fill:white;stroke:black;stroke-width:0.5px;" marker-end="url(#arrow)"/>
    <use x="55" y="26" href="#alu2"/>
    <polyline points="79,47 88,47" style="fill:white;stroke:black;stroke-width:0.5px;" marker-end="url(#arrow)"/>
    <circle cx="58" cy="55" r="0.5" style="fill:none;stroke:black;stroke-width:0.5px;"/>
    <polyline points="84,47 84,30" style="fill:white;stroke:black;stroke-width:0.5px;" marker-end="url(#arrow)"/>
    <circle cx="84" cy="47" r="0.5" style="fill:none;stroke:black;stroke-width:0.5px;"/>
    <rect x="90" y="34" width="35" height="35" style="fill:none;stroke:black;stroke-width:0.5px;"/>
    <text x="92" y="48" font-size="3">Address</text>
    <text x="92" y="64" font-size="3">Data</text>
    <text x="110" y="55" font-size="3">Data</text>
    <text x="110" y="58" font-size="3">memory</text>
    <polyline points="125,50 129,50 129,28 16,28 16,34 18,34" style="fill:none;stroke:black;stroke-width:0.5px;" marker-end="url(#arrow)"/>
    <polyline points="12,42 12,70 62,70 62,58" style="fill:none;stroke:black;stroke-width:0.5px;" marker-end="url(#arrow)"/>
    <polyline points="12,49 17,49" style="fill:white;stroke:black;stroke-width:0.5px;" marker-end="url(#arrow)"/>
    <polyline points="12,56 17,56" style="fill:white;stroke:black;stroke-width:0.5px;" marker-end="url(#arrow)"/>
    <circle cx="12" cy="49" r="0.5" style="fill:none;stroke:black;stroke-width:0.5px;"/>
    <circle cx="12" cy="56" r="0.5" style="fill:none;stroke:black;stroke-width:0.5px;"/>
</svg>

