<svg width="100px" 
     height="80px" 
     viewBox="0.0 0.0 100.00 80.00" 
     viewPort = "0 0 100 80" 
     xmlns="http://www.w3.org/2000/svg" version="1.1">
    <defs>
            <g id="alu" transform="scale(0.9)">
                <polyline points="10,5 10,10 10,15 12.5,17.5 10,20 10,25 10,30 20,25 20,10 10,5 10,10" style="fill:white;stroke:black;stroke-width:0.5px;"/>
            </g>
            <g id="alu2" transform="scale(1.2)">
                <polyline points="10,5 10,10 10,15 12.5,17.5 10,20 10,25 10,30 20,25 20,10 10,5 10,10" style="fill:white;stroke:black;stroke-width:0.5px;"/>
            </g>
             <marker id="arrow" markerWidth="10" markerHeight="10" refX="0" refY="1.5" orient="auto" markerUnits="strokeWidth">
            <path d="M0,0 L0,3 L4.5,2 z" fill="black" />
            </marker>
    </defs>
    <rect x="9" y="32" width="7" height="20" style="fill:none;stroke:black;stroke-width:0.5px;"/>
    <text x="10" y="40" font-size="4">PC</text>
    <polyline points="16,42 23,42" style="fill:white;stroke:black;stroke-width:0.5px;" marker-end="url(#arrow)"/>
    <polyline points="20,42 20,23 22,23" style="fill:white;stroke:black;stroke-width:0.5px;" marker-end="url(#arrow)"/>
    <circle cx="20" cy="42" r="0.5" style="fill:none;stroke:black;stroke-width:0.5px;"/>
    <polyline points="30,16 40,16 40,3 6,3 6,42 7,42" style="fill:none;stroke:black;stroke-width:0.5px;" marker-end="url(#arrow)"/>
    <polyline points=" 18,10 22,10" style="fill:none;stroke:black;stroke-width:0.5px;" marker-end="url(#arrow)"/>
    <text x="15" y="11" font-size="4">4</text>
    <rect x="25" y="30" width="35" height="35" style="fill:none;stroke:black;stroke-width:0.5px;"/>
    <text x="26" y="45" font-size="3">Address</text>
    <text x="40" y="45" font-size="3">Instruction</text>
    <text x="28" y="55" font-size="3">Instruction</text>
    <text x="28" y="58" font-size="3">memory</text>
    <use x="15" y="0" href="#alu"/>
    <polyline points="60,42 68,42" style="fill:white;stroke:black;stroke-width:0.5px;" marker-end="url(#arrow)"/>
    
</svg>

