<svg width="500.0" height="500.0" viewBox="0.0 0.0 500.0 500.0" preserveAspectRatio="xMidYMin meet" xmlns="http://www.w3.org/2000/svg" version="1.1">
    <ellipse fill="white" stroke="black" stroke-width="2px" cx="250" cy="250" rx="220" ry="220">
    </ellipse>
    <line x1="30" y1="250" x2="40" y2="250" stroke="black" stroke-width="2px">
    </line>
    <text x="35" y="245" fill="black">0000</text>
    <text x="35" y="265" fill="black">1111</text>
    
    <line x1="460" y1="250" x2="480" y2="250" stroke="black" stroke-width="2px">
    </line>
    <text x="430" y="245" fill="black">0111</text>
    <line x1="250" y1="30" x2="250" y2="40" stroke="black" stroke-width="2px">
    </line>
    <text x="235" y="55" fill="black">0011</text>
    <line x1="250" y1="460" x2="250" y2="470" stroke="black" stroke-width="2px">
    </line>
    <text x="235" y="450" fill="black">1100</text>
    <line x1="30" y1="250" x2="40" y2="250" stroke="black" stroke-width="2px"
    transform="rotate(30,250,250)">
    </line>
    <text x="75" y="155" fill="black">0001</text>
    <line x1="460" y1="250" x2="470" y2="250" stroke="black" stroke-width="2px"
    transform="rotate(30,250,250)">
    </line>
    <text x="140" y="85" fill="black">0010</text>
    <line x1="30" y1="250" x2="40" y2="250" stroke="black" stroke-width="2px"
    transform="rotate(60,250,250)">
    </line>
    <text x="390" y="360" fill="black">1001</text>
    <line x1="460" y1="250" x2="470" y2="250" stroke="black" stroke-width="2px"
    transform="rotate(60,250,250)">
    </line>
    <text x="320" y="430" fill="black">1010</text>
    
    <line x1="30" y1="250" x2="40" y2="250" stroke="black" stroke-width="2px"
    transform="rotate(120,250,250)">
    </line>                   
    <text x="325" y="85" fill="black">0100</text>
    <line x1="30" y1="250" x2="40" y2="250" stroke="black" stroke-width="2px"
    transform="rotate(150,250,250)">
    </line>
    <text x="400" y="160" fill="black">1010</text>
    <line x1="460" y1="250" x2="470" y2="250" stroke="black" stroke-width="2px"
    transform="rotate(120,250,250)">
    </line>
    <line x1="30" y1="250" x2="40" y2="250" stroke="black" stroke-width="2px"
    transform="rotate(150,250,250)">
    </line>

    <line x1="30" y1="250" x2="40" y2="250" stroke="black" stroke-width="2px"
    transform="rotate(-30,250,250)">
    </line>
    <text x="75" y="355" fill="black">1110</text>
    <line x1="30" y1="250" x2="40" y2="250" stroke="black" stroke-width="2px"
    transform="rotate(-60,250,250)">
    </line>
    <text x="140" y="430" fill="black">1101</text>
    <line x1="30" y1="250" x2="470" y2="250" stroke="black" stroke-dasharray="5,5" stroke-width="2px">
    </line>
</svg>
