<svg width="150px" height="100px" viewBox="0.0 0.0 150.00 100.00" viewPort = "0 0 150 100" xmlns="http://www.w3.org/2000/svg" version="1.1">
    
    <rect x="30" y="30" width="80" height="30" style="stroke:lightblue;fill:lightblue"/>
    <rect x="33" y="30" width="20" height="10" style="stroke:green;fill:green"/>
    <text x="35" y="35" font-size="6">n</text>
    <rect x="87" y="30" width="20" height="10" style="stroke:green;fill:green"/>
    <text x="90" y="35" font-size="6">n</text>
    <line x1="60" y1="29" x2="80" y2="29" style="stroke:grey;"/>
    <text x="78" y="28" font-size="4">SiO2</text>
    <text x="70" y="50" font-size="6">p</text>
    <!--Source-->
    <rect x="38" y="28" width="10" height="1" style="stroke:black;fill:black"/>
    <line x1="43" y1="18" x2="43" y2="28" style="stroke:black"/>
    <circle cx="43" cy="16" r="2" style="stroke:black;fill:none"/>
    <text x="35" y="10" font-size="6">Source</text>
    <!--Gate-->
    <rect x="65" y="27" width="10" height="1" style="stroke:black;fill:black"/>
    <line x1="70" y1="18" x2="70" y2="28" style="stroke:black"/>
    <circle cx="70" cy="16" r="2" style="stroke:black;fill:none"/>
    <text x="65" y="10" font-size="6">Gate</text>
    <!--Drain-->
    <rect x="92" y="28" width="10" height="1" style="stroke:black;fill:black"/>
    <line x1="97" y1="18" x2="97" y2="28" style="stroke:black"/>
    <circle cx="97" cy="16" r="2" style="stroke:black;fill:none"/>
    <text x="90" y="10" font-size="6">Drain</text>
    <!--Bulk-->
    <line x1="30" y1="61" x2="110" y2="61" style="stroke:black;stroke-width:2px;stroke-linecap:butt;fill:none;"/>
    <line x1="70" y1="62" x2="70" y2="70" style="stroke:black"/>
    <circle cx="70" cy="72" r="2" style="stroke:black;fill:none"/>
    <text x="65" y="80" font-size="6">Bulk</text>
</svg>
