<svg width="92px" 
     height="85px" 
     viewBox="0.0 0.0 92.00 85.00" 
     viewPort = "0 0 92 85" 
     xmlns="http://www.w3.org/2000/svg" version="1.1">
    <defs>
        <marker id="arrow" markerWidth="10" markerHeight="10" refX="0" refY="1.5" orient="auto" markerUnits="strokeWidth">
            <path d="M0,0 L0,3 L4.5,2 z" fill="black" />
        </marker>
        <g id="mux">
                <rect x="10" y="10" rx="5" ry="5" width="6" height="29" style="fill:none;stroke:black;stroke-width:0.5px;"/>
                <text x="12" y="22.5" font-size="3">M</text>
                <text x="12" y="25" font-size="3">U</text>
                <text x="12" y="27.5" font-size="3">X</text>
            </g>
    </defs>
    <!--     data path -->
    <rect x="20" y="10" width="50" height="74" style="fill:none;stroke:black;stroke-width:0.5px;"/>
    <rect x="25" y="20" width="17" height="5" style="fill:none;stroke:black;stroke-width:0.5px;"/>
    <text x="26" y="24" font-size="3">Register 0</text>
    <rect x="25" y="25" width="17" height="5" style="fill:none;stroke:black;stroke-width:0.5px;"/>
    <text x="26" y="29" font-size="3">Register 1</text>
    <rect x="25" y="30" width="17" height="5" style="fill:none;stroke:black;stroke-width:0.5px;"/>
    <text x="26" y="34" font-size="3">...</text>
    <rect x="25" y="35" width="17" height="5" style="fill:none;stroke:black;stroke-width:0.5px;"/>
    <text x="26" y="39" font-size="3">Register n-2</text>
    <rect x="25" y="40" width="17" height="5" style="fill:none;stroke:black;stroke-width:0.5px;"/>
    <text x="26" y="44" font-size="3">Register n-1</text>
    <polyline points="42,23 54.5,23" style="fill:none;stroke:black;stroke-width:0.5px;" marker-end="url(#arrow)"/>
    <polyline points="42,28 54.5,28" style="fill:none;stroke:black;stroke-width:0.5px;" marker-end="url(#arrow)"/>
    <polyline points="42,33 54.5,33" style="fill:none;stroke:black;stroke-width:0.5px;" marker-end="url(#arrow)"/>
    <polyline points="42,38 54.5,38" style="fill:none;stroke:black;stroke-width:0.5px;" marker-end="url(#arrow)"/>
    <polyline points="42,43 54.5,43" style="fill:none;stroke:black;stroke-width:0.5px;" marker-end="url(#arrow)"/>
    <use x="47" y="8" href="#mux"/>
    <polyline points="53,23 53,56 54.5,56" style="fill:none;stroke:black;stroke-width:0.5px;" marker-end="url(#arrow)"/>
    <circle cx="53" cy="23" r="0.5" style="fill:none;stroke:black;stroke-width:0.5px;"/>
    <polyline points="51,28 51,61 54.5,61" style="fill:none;stroke:black;stroke-width:0.5px;" marker-end="url(#arrow)"/>
    <circle cx="51" cy="28" r="0.5" style="fill:none;stroke:black;stroke-width:0.5px;"/>
    <polyline points="49,33 49,66 54.5,66" style="fill:none;stroke:black;stroke-width:0.5px;" marker-end="url(#arrow)"/>
    <circle cx="49" cy="33" r="0.5" style="fill:none;stroke:black;stroke-width:0.5px;"/>
    <polyline points="47,38 47,71 54.5,71" style="fill:none;stroke:black;stroke-width:0.5px;" marker-end="url(#arrow)"/>
    <circle cx="47" cy="38" r="0.5" style="fill:none;stroke:black;stroke-width:0.5px;"/>    
    <polyline points="45,43 45,76 54.5,76" style="fill:none;stroke:black;stroke-width:0.5px;" marker-end="url(#arrow)"/>
    <circle cx="45" cy="43" r="0.5" style="fill:none;stroke:black;stroke-width:0.5px;"/>
    <use x="47" y="42" href="#mux"/>
    <polyline points="63,33 75,33" style="fill:none;stroke:black;stroke-width:0.5px;" marker-end="url(#arrow)"/>
    <text x="78" y="34" font-size="3">Read port 1</text>
    <polyline points="63,66 75,66" style="fill:none;stroke:black;stroke-width:0.5px;" marker-end="url(#arrow)"/>
    <text x="78" y="67" font-size="3">Read port 2</text>
    <polyline points="15,14 60,14 60,16" style="fill:none;stroke:black;stroke-width:0.5px;" marker-end="url(#arrow)"/>
    <text x="0" y="15" font-size="3">Read port 1</text>
    <polyline points="15,49 60,49 60,50" style="fill:none;stroke:black;stroke-width:0.5px;" marker-end="url(#arrow)"/>
    <text x="0" y="50" font-size="3">Read port 2</text>
</svg>

