<svg width="140.00" height="130.00" 
     viewBox="0.0 0.0 140.0 130.0" 
     viewPort="0 0 140px 120px" 
     version="1.1"
     xmlns:xlink="http://www.w3.org/1999/xlink"
     xmlns="http://www.w3.org/2000/svg">
    
    <symbol id="pmos">
        <polyline points="50,38 40,38  40,53 50,53" style="stroke:black;stroke-width:1;fill:none;stroke-linecap:round"/>
        <circle cx="37" cy="45" r="1" style="stroke:black;stroke-width:1;fill:none;"/>
        <line x1="38" y1="38" x2="38" y2="53" style="stroke:black;stroke-width:1;fill:none;"/>
        <line x1="25" y1="45" x2="36" y2="45" style="stroke:black;stroke-width:1;fill:none;"/>
    </symbol>
    <symbol id="nmos">
        <polyline points="50,70 40,70  40,85 50,85" style="stroke:black;stroke-width:1;fill:none;stroke-linecap:round"/>
        <line x1="38" y1="70" x2="38" y2="85" style="stroke:black;stroke-width:1;fill:none;"/>
        <line x1="25" y1="77" x2="38" y2="77" style="stroke:black;stroke-width:1;fill:none;"/>
    </symbol>
    <symbol id="nmos_horizontal">
    <g transform="rotate(-90 50 70) translate(10 -30)">
        <use x="0" y="0"  xlink:href="#nmos" style="stroke:blue;stroke-width:1"/>
    </g>
    </symbol>
    <rect x="10" y="5" width="110" height="100" style="fill:none;stroke:blue;stroke-width:1"/>
    <text x="12" y="10" font-size="5" style="fill:blue">SRAM cell</text>
    <g transform="translate(15 0)">
    <!--power-->
    <text x="52" y="12" font-size="4">Vss</text>
    <circle cx="50" cy="18" r="0.6" style="stroke:black;stroke-width:1"/>
    <line x1="50" y1="11" x2="50" y2="18" style="stroke:black;stroke-width:1"/>
    <circle cx="50" cy="10" r="1" style="fill:none;stroke:black;stroke-width:1"/>
    <!--     cell -->
    <polyline points="20,27 20,18 80,18 80,28" style="stroke:black;stroke-width:1;fill:none;"/>
    <rect x="18.5" y="27" width="3" height="15" style="fill:none;stroke:black;stroke-width:1"/>
    <rect x="78.5" y="27.5" width="3" height="15" style="fill:none;stroke:black;stroke-width:1"/>
    <use x="30" y="-10" xlink:href="#nmos" style="stroke:blue;stroke-width:1"/>
    <g transform="rotate(180 50 70) translate(30 -4)">
        <use x="0" y="0" xlink:href="#nmos" style="stroke:blue;stroke-width:1"/>
    </g>
    <line x1="20" y1="42" x2="20" y2="59" style="stroke:black;stroke-width:1"/>
    <line x1="80" y1="43" x2="80" y2="60" style="stroke:black;stroke-width:1"/>
    <circle cx="20" cy="46" r="0.6" style="stroke:black;stroke-width:1"/>    
    <circle cx="80" cy="54" r="0.6" style="stroke:black;stroke-width:1"/>
    <polyline points="20,46 50,46 50,67 55,67" style="stroke:black;stroke-width:1;fill:none;"/>
    <polyline points="85,54 45,54 45,67" style="stroke:black;stroke-width:1;fill:none;stroke-linecap:round;"/>
    <polyline points="20,74 20,82 80,82 80,75" style="stroke:black;stroke-width:1;fill:none;"/>
    <!--ground-->
    <circle cx="50" cy="82" r="0.6" style="stroke:black;stroke-width:1"/>
    <line x1="50" y1="82" x2="50" y2="90" style="stroke:black;stroke-width:1"/>
    <polygon points="46,90 54,90 50,95" style="stroke:black;stroke-width:1;fill:white;"/>
    </g>
    <line x1="30" y1="54" x2="35" y2="54" style="stroke:black;stroke-width:1;stroke-linecap:round;"/>
    <circle cx="35" cy="54" r="0.6" style="stroke:black;stroke-width:1"/>
    <use x="-5" y="-6"  xlink:href="#nmos_horizontal" style="stroke:blue;stroke-width:1"/>
    <use x="80" y="-6"  xlink:href="#nmos_horizontal" style="stroke:blue;stroke-width:1"/>
    <polyline points="22,79 22,100 107,100 107,79" style="stroke:black;stroke-width:1;fill:none;"/>
    <line x1="5" y1="0" x2="5" y2="130" style="stroke:black;stroke-width:1;fill:none;"/>
    <text x="7" y="125" font-size="4">Bit Line</text>
    <line x1="5" y1="54" x2="15" y2="54" style="stroke:black;stroke-width:1;fill:none;"/>
    <circle cx="5" cy="54" r="0.6" style="stroke:black;stroke-width:1"/>
    <circle cx="125" cy="54" r="0.6" style="stroke:black;stroke-width:1"/>
    <line x1="115" y1="54" x2="125" y2="54" style="stroke:black;stroke-width:1;fill:none;"/>
    <line x1="125" y1="0" x2="125" y2="130" style="stroke:black;stroke-width:1;fill:none;"/>
    <text x="127" y="125" text-decoration="overline" font-size="4">Bit Line</text>
    <line x1="0" y1="110" x2="140" y2="110" style="stroke:black;stroke-width:1;fill:none;"/>
    <text x="55" y="115" font-size="4">Column Line</text>
    <line x1="65" y1="100" x2="65" y2="110" style="stroke:black;stroke-width:1;fill:none;"/>
    <circle cx="65" cy="100" r="0.6" style="stroke:black;stroke-width:1"/>
    <circle cx="65" cy="110" r="0.6" style="stroke:black;stroke-width:1"/>
</svg>
