<svg width="55.00" height="40.00"
     viewBox="0.0 0.0 55.0 40.0"
     viewPort="0 0 55px 40px"
     version="1.1"
     xmlns:xlink="http://www.w3.org/1999/xlink"
     xmlns="http://www.w3.org/2000/svg">

    <polygon points="30,5  30,25  50,15 " style="stroke:black;stroke-width:0.6px;fill:none;"/>
    <line x1="20" y1="10" x2="30" y2="10" style="stroke:black;stroke-width:0.6px;fill:none;"/>
    <line x1="25" y1="21" x2="30" y2="21" style="stroke:black;stroke-width:0.6px;fill:none;"/>
    <line x1="50" y1="15" x2="55" y2="15" style="stroke:black;stroke-width:0.6px;fill:none;"/>
    <text x="32" y="12" font-size="5">-</text>
    <text x="31" y="22" font-size="5">+</text>
    <line x1="25" y1="10" x2="25" y2="2" style="stroke:black;stroke-width:0.6px;fill:none;"/>
    <line x1="25" y1="2" x2="30" y2="2" style="stroke:black;stroke-width:0.6px;fill:none;"/>
    <rect x="30" y="0.5" width="8" height="3" style="stroke:black;stroke-width:0.6px;fill:none;"/>
    <line x1="38" y1="2" x2="53" y2="2" style="stroke:black;stroke-width:0.6px;fill:none;"/>
    <line x1="53" y1="2" x2="53" y2="15" style="stroke:black;stroke-width:0.6px;fill:none;"/>
    <rect x="12" y="8.5" width="8" height="3" style="stroke:black;stroke-width:0.6px;fill:none;"/>
    <line x1="7" y1="10" x2="12" y2="10" style="stroke:black;stroke-width:0.6px;fill:none;"/>
    <line x1="7" y1="10" x2="7" y2="14" style="stroke:black;stroke-width:0.6px;fill:none;stroke-linecap:round;"/>
    <line x1="5" y1="14" x2="9" y2="14" style="stroke:black;stroke-width:0.6px;fill:none;"/>
    <text x="15" y="22" font-size="4">V_in+</text>


</svg>
