<svg width="120" height="100" viewBox="0 0 100 100"
     xmlns="http://www.w3.org/2000/svg">

  <!-- Marker außerhalb des Symbols (robuster) -->
  <defs>
    <marker id="arrowhead" markerWidth="6" markerHeight="6" refX="5" refY="3"
            orient="auto" markerUnits="strokeWidth">
      <path d="M0,0 L0,6 L6,3 z" fill="black"/>
    </marker>
  </defs>

  <symbol id="npn">
    <g transform="translate(0 15.5)">
      <g id="npn_classic">
        <polyline points="73,20 80,15 80,05" style="stroke:black;stroke-width:1;fill:none;"/>
        <!-- Basis -->
        <line x1="58" y1="25" x2="73" y2="25" style="stroke:black;stroke-width:1;fill:none;stroke-linecap:round"/>
        <line x1="73" y1="18" x2="73" y2="31" style="stroke:black;stroke-width:1;fill:none;"/>
        <!-- Emitter -->
        <polyline points="73,28 80,35 80,42" style="stroke:black;stroke-width:1;fill:none;"/>
        <!-- Pfeil -->
        <line x1="77" y1="34" x2="80" y2="37" style="stroke:black;stroke-width:1;marker-end:url(#arrowhead)"/>
        <!-- Kreis -->
        <circle cx="76" cy="25" r="11" style="stroke:black;stroke-width:1;fill:none;"/>
      </g>
    </g>
  </symbol>
  <!-- IEC (EU) Rechteck -->
  <symbol id="resistor" viewBox="0 0 200 60">
    <!-- Leitungen -->
    <line x1="10" y1="30" x2="60"  y2="30" stroke="currentColor" stroke-width="4" stroke-linecap="round"/>
    <line x1="120" y1="30" x2="190" y2="30" stroke="currentColor" stroke-width="4" stroke-linecap="round"/>
    <!-- Widerstandskörper -->
    <rect x="60" y="20" width="60" height="20" fill="none" stroke="currentColor" stroke-width="4"/>
  </symbol>
    <circle cx="20" cy="43" r="1" style="stroke:black;stroke-width:1;fill:none;"/>
    <circle cx="92" cy="43" r="1" style="stroke:black;stroke-width:1;fill:none;"/>
  <!-- 1) Original: Höhe y=30 -->
  <use href="#npn" x="12" y="25"/>
  <!-- 2) Horizontal gespiegelt, gleiche Höhe y=30 -->
  <!-- translate(100,0) scale(-1,1) spiegelt an der Zeichenfläche (Breite=100) -->
  <g transform="translate(100,0) scale(-1,1)">
    <use href="#npn" x="0" y="25"/>
  </g>
      <!-- Widerstand gedreht (Rotation um (0,0), danach in die Fläche geschoben) -->
  <g transform="translate(98,9) rotate(90)">
    <use href="#resistor" width="40" height="12"/>
  </g>
    <!-- Widerstand gedreht (Rotation um (0,0), danach in die Fläche geschoben) -->
  <g transform="translate(26,9) rotate(90)">
    <use href="#resistor" width="40" height="12"/>
  </g>
    <g transform="translate(18,37)">
    <use href="#resistor" width="40" height="12"/>
  </g>
    <!-- Widerstand gedreht (Rotation um (0,0), danach in die Fläche geschoben) -->
  <g transform="translate(60,37)">
    <use href="#resistor" width="34" height="12"/>
  </g>
    <line x1="12" y1="11" x2="92" y2="11" stroke="currentColor" stroke-width="0.7" />
    <line x1="12" y1="91" x2="92" y2="91" stroke="currentColor" stroke-width="0.7" />
<line x1="56" y1="43" x2="70" y2="65.5" stroke="currentColor" stroke-width="0.7" />
<circle cx="42" cy="65.5" r="1" style="stroke:black;stroke-width:1;fill:none;"/>
<circle cx="70" cy="65.5" r="1" style="stroke:black;stroke-width:1;fill:none;"/>
     <line x1="42" y1="65.5" x2="42" y2="75" stroke="currentColor" stroke-width="0.7" />
    <line x1="70" y1="65.5" x2="70" y2="75" stroke="currentColor" stroke-width="0.7" />
    <line x1="42" y1="65.5" x2="62" y2="43" stroke="currentColor" stroke-width="0.7" />

     <line x1="20" y1="82" x2="20" y2="91" stroke="currentColor" stroke-width="0.8" />
     <line x1="92" y1="82" x2="92" y2="91.5" stroke="currentColor" stroke-width="0.8" />

    <text x="40" y="82" text-decoration="overline" font-size="6">S</text>
    <text x="68" y="82" text-decoration="overline" font-size="6">R</text>


    <text x="14" y="45" font-size="6">Q</text>
    <text x="95" y="45" text-decoration="overline" font-size="6">Q</text>

</svg>
