<svg width="134.00" height="120.00" 
     viewBox="0.0 0.0 134.0 120.0" 
     viewPort="0 0 134px 120px" 
     version="1.1"
     xmlns:xlink="http://www.w3.org/1999/xlink"
     xmlns="http://www.w3.org/2000/svg">
    <defs>
        <g id="mux" transform="scale(0.7)">
        <polyline points="20,10 30,15 30,35 20,40 20,10 30,15" style="fill:skyblue;stroke:black;stroke-width:0.5px;"/>
        </g>
        <g id="busline" transform="scale(0.7)">
            <line x1= "0" y1="6" x2="5" y2="0" style="fill:none;stroke:black;stroke-width:0.8px;"/>
            <text x="-3" y="9" font-size="6">4</text>
        </g>
         <g id="nor" transform="scale(0.12)">
        <g transform="rotate(90,50,50)">
        <!--inputs-->
        <line
            x1="10"
            y1="20"
            x2="40"
            y2="20"
            style="fill:#ffffff;stroke:#000000"
            stroke-width="2px"
            id="line5" />
        <line
            x1="10"
            y1="40"
            x2="40"
            y2="40"
            style="fill:#ffffff;stroke:#000000"
            stroke-width="2px"
            id="line00" />
        <line
            x1="10"
            y1="60"
            x2="40"
            y2="60"
            style="fill:#ffffff;stroke:#000000"
            stroke-width="2px"
            id="line01" />
        
        <line
            x1="10"
            y1="80"
            x2="40"
            y2="80"
            style="fill:#ffffff;stroke:#000000"
            stroke-width="2px"
            id="line7" />
        <!--output-->
       <!-- <line
            x1="90"
            y1="50"
            x2="130"
            y2="50"
            style="fill:#ffffff;stroke:#000000"
            stroke-width="2px"
            id="line9" />-->
        <!--symbol-->
        <line
            x1="30"
            y1="10"
            x2="70"
            y2="10"
            style="fill:#ffffff;stroke:#000000"
            stroke-width="2px"
            id="line11" />
        <line
            x1="30"
            y1="90"
            x2="70"
            y2="90"
            style="fill:#ffffff;stroke:#000000"
            stroke-width="2px"
            id="line13" />
        <circle cx="113" cy="50" r="6" style="fill:#ffffff;stroke:#000000"/>
        <path
            id="ellipse8"
            style="fill:#ffffff;stroke:#000000;stroke-width:2px"
            type="arc"
            cx="70"
            cy="50"
            rx="40"
            ry="40"
            start="4.7"
            end="1.5656212"
            open="true"
            d="m 69.504453,10.00307 a 40,40 0 0 1 34.935157,19.652064 40,40 0 0 1 0.352,40.081724 40,40 0 0 1 -34.584606,20.262606" />
        <path
            id="ellipse9"
            style="fill:none;stroke:#000000;stroke-width:2px"
            type="arc"
            cx="30"
            cy="50"
            rx="12.351695"
            ry="40"
            start="4.7"
            end="1.5656212"
            open="true"
            d="M 29.846979,10.00307 A 12.351695,40 0 0 1 40.634688,29.655134 12.351695,40 0 0 1 40.743385,69.736858 12.351695,40 0 0 1 30.063921,89.999464" />
        </g>
        </g>
    </defs>
    <rect x="8" y="10" width="110" height="100" style="fill:none;stroke:black;stroke-width:0.5px;"/>
    <rect x="40" y="20" width="20" height="20" style="fill:none;stroke:black;stroke-width:0.5px;"/>
    <text x="45" y="25" font-size="4">4-bit</text>
    <text x="45" y="30" font-size="4">AND</text>
    <rect x="40" y="45" width="20" height="20" style="fill:none;stroke:black;stroke-width:0.5px;"/>
    <text x="45" y="50" font-size="4">4-bit</text>
    <text x="45" y="55" font-size="4">OR</text>
    <rect x="40" y="75" width="20" height="20" style="fill:none;stroke:black;stroke-width:0.5px;"/>
    <text x="45" y="80" font-size="4">4-bit</text>
    <text x="45" y="85" font-size="4">Full-</text>
    <text x="45" y="90" font-size="4">Adder</text>
    <line x1= "5" y1="50" x2="40" y2="50" style="fill:none;stroke:black;stroke-width:0.5px;"/>
    <text x="2" y="51" font-size="4">A</text>
    <use x="11" y="48" href="#busline"/>
    <line x1= "5" y1="60" x2="40" y2="60" style="fill:none;stroke:black;stroke-width:0.5px;"/>
    <text x="2" y="61" font-size="4">B</text>
    <use x="11" y="58" href="#busline"/>
    <polyline points="40,25 15,25 15,80 40,80" style="fill:none;stroke:black;stroke-width:0.5px;"/>
    <circle cx="15" cy="50" r="0.5" style="fill:none;stroke:black;stroke-width:0.5px;"/> 
    <polyline points="40,30 20,30 20,90 40,90" style="fill:none;stroke:black;stroke-width:0.5px;"/>
    <circle cx="15" cy="50" r="0.5" style="fill:none;stroke:black;stroke-width:0.5px;"/> 
    <circle cx="20" cy="60" r="0.5" style="fill:none;stroke:black;stroke-width:0.5px;"/> 
    <rect x="25" y="85" width="10" height="10" style="fill:white;stroke:black;stroke-width:0.5px;"/>
    <text x="26" y="91" font-size="4">XOR</text>
    <line x1="50" y1="70" x2="50" y2="75" style="fill:none;stroke:red;stroke-width:0.5px;"/>
    <polyline points="60,30 68,30 68,33 75,33" style="fill:none;stroke:black;stroke-width:0.5px;"/>
    <polyline points="60,55 68,55 68,43 75,43" style="fill:none;stroke:black;stroke-width:0.5px;"/>
    <polyline points="78,7 78,33" style="fill:none;stroke:red;stroke-width:0.5px;"/>
    <polyline points="78,25 70,25 70,70 30,70 30,85" style="fill:none;stroke:red;stroke-width:0.5px;"/>
    <polyline points="92,7 92,35" style="fill:none;stroke:red;stroke-width:0.5px;"/>
    <use x="60" y="20" href="#mux"/>
    <polyline points="81,38 90,38" style="fill:none;stroke:black;stroke-width:0.5px;"/>
    <polyline points="60,85 80,85 80,48 89,48" style="fill:none;stroke:black;stroke-width:0.5px;"/>
    <use x="75" y="25" href="#mux"/>
    <polyline points="96,43 125,43" style="fill:none;stroke:black;stroke-width:0.5px;"/>
    <text x="127" y="44" font-size="4">Y</text>
    
    <use x="63" y="28" href="#busline"/>
    <use x="63" y="53" href="#busline"/>
    <use x="70" y="83" href="#busline"/>
    <text x="75" y="4" font-size="4">Sel0</text>
    <text x="90" y="4" font-size="4">Sel1</text>
    <use x="100" y="41" href="#busline"/>
    <polyline points="60,92 120,92" style="fill:none;stroke:black;stroke-width:0.5px;"/>
    <text x="121" y="93" font-size="3">Overflow</text>
    <polyline points="50,95 50,102 120,102" style="fill:none;stroke:black;stroke-width:0.5px;"/>
    <text x="121" y="103" font-size="3">Carry</text>
    <use x="105" y="42" href="#nor"/>
    <polyline points="111,56 111,60 120,60" style="fill:none;stroke:black;stroke-width:0.3px;"/>
    <text x="121" y="61" font-size="3">Zero</text>
    <polyline points="104,43 104,64 120,64" style="fill:none;stroke:black;stroke-width:0.3px;"/>
    <text x="121" y="65" font-size="3">Negative</text>
</svg>
