<svg width="140.00" height="40.00" 
     viewBox="0.0 0.0 140.0 40.0" 
     viewPort="0 0 140px 40px" 
     version="1.1"
     xmlns:xlink="http://www.w3.org/1999/xlink"
     xmlns="http://www.w3.org/2000/svg">
    
    <symbol id="dflipflop">
        <rect x="5" y="5" width="15" height="20" style="stroke:black;stroke-width:0.5px;fill:none;"/>
        <line x1="0" y1="2" x2="0" y2="10" style="stroke:black;stroke-width:1px;fill:none;"/>
        <line x1="0" y1="10" x2="5" y2="10" style="stroke:black;stroke-width:0.5px;fill:none;"/>
        <line x1="0" y1="20" x2="5" y2="20" style="stroke:black;stroke-width:0.5px;fill:none;"/>
        <text x="6" y="12" font-size="6">D</text>
<!--         <text x="6" y="22" font-size="6">Clk</text> -->
        <line x1="0" y1="28" x2="0" y2="20" style="stroke:black;stroke-width:1px;fill:none;"/>
        <line x1="20" y1="10" x2="26" y2="10" style="stroke:black;stroke-width:0.5px;fill:none;"/>
<!--         <line x1="20" y1="20" x2="26" y2="20" style="stroke:black;stroke-width:0.5px;fill:none;"/> -->
        <polyline points="5,18 8,20 5,22" style="stroke:black;stroke-width:0.5px;fill:none;"/>
        <text x="14" y="12" font-size="6">Q</text>
<!--         <text x="14" y="22" text-decoration="overline" font-size="6">Q</text> -->
    </symbol>
    <use href="#dflipflop" x="10" y="5"/>
    <text x="10" y="6" font-size="4">D
            <tspan  dy="1">0
            </tspan>
        </text>
    <text x="34" y="19" font-size="4">Q
            <tspan  dy="1">0
            </tspan>
    </text>
    <use href="#dflipflop" x="40" y="5"/>
    <text x="40" y="6" font-size="4">D
            <tspan dx="0" dy="1">1
            </tspan>
        </text>
    <text x="64" y="19" font-size="4">Q
            <tspan  dy="1">1
            </tspan>
    </text>
    <use href="#dflipflop" x="70" y="5"/>
    <text x="70" y="6" font-size="4">D
            <tspan dx="0.2" dy="0.5">2
            </tspan>
        </text>
    <text x="94" y="19" font-size="4">Q
            <tspan  dy="1">2
            </tspan>
    </text>
    <use href="#dflipflop" x="100" y="5"/>
    <text x="100" y="6" font-size="4">D
            <tspan dx="0.2" dy="0.5">3
            </tspan>
        </text>
    <text x="124" y="19" font-size="4">Q
            <tspan  dy="1">3
            </tspan>
    </text>
    <text x="4" y="32" font-size="4">Clk</text>
    <line x1="5" y1="33" x2="100.2" y2="33" style="stroke:black;stroke-width:0.5px;fill:none;stroke-linecap:round;"/>
    <circle cx="10.2" cy="33" r="0.5" style="stroke:black;stroke-width:0.5px;fill:none;"/>
    <circle cx="40.2" cy="33" r="0.5" style="stroke:black;stroke-width:0.5px;fill:none;"/>
    <circle cx="70.2" cy="33" r="0.5" style="stroke:black;stroke-width:0.5px;fill:none;"/>
    <text x="50" y="38" font-size="5">4 bit register</text>
</svg>
